G04*
G04 #@! TF.GenerationSoftware,Altium Limited,Altium Designer,20.0.7 (75)*
G04*
G04 Layer_Color=8388736*
%FSLAX44Y44*%
%MOMM*%
G71*
G01*
G75*
%ADD11R,0.7500X0.6500*%
G04:AMPARAMS|DCode=12|XSize=2.1mm|YSize=2.1mm|CornerRadius=0.55mm|HoleSize=0mm|Usage=FLASHONLY|Rotation=180.000|XOffset=0mm|YOffset=0mm|HoleType=Round|Shape=RoundedRectangle|*
%AMROUNDEDRECTD12*
21,1,2.1000,1.0000,0,0,180.0*
21,1,1.0000,2.1000,0,0,180.0*
1,1,1.1000,-0.5000,0.5000*
1,1,1.1000,0.5000,0.5000*
1,1,1.1000,0.5000,-0.5000*
1,1,1.1000,-0.5000,-0.5000*
%
%ADD12ROUNDEDRECTD12*%
%ADD13C,2.1000*%
%ADD14O,1.2000X2.0000*%
%ADD15O,1.2000X2.7000*%
%ADD16C,0.7000*%
%ADD17C,0.1000*%
%ADD18C,2.0000*%
%ADD19C,2.9000*%
D11*
X4525750Y1318000D02*
D03*
X4516750D02*
D03*
X4474250Y1286000D02*
D03*
X4483250D02*
D03*
D12*
X4411400Y1312000D02*
D03*
X4660000Y1081400D02*
D03*
D13*
X4386000Y1312000D02*
D03*
X4360600D02*
D03*
X4660000Y1106800D02*
D03*
X4634600Y1081400D02*
D03*
Y1106800D02*
D03*
X4609200Y1081400D02*
D03*
Y1106800D02*
D03*
X4583800Y1081400D02*
D03*
Y1106800D02*
D03*
X4558400Y1081400D02*
D03*
Y1106800D02*
D03*
X4533000Y1081400D02*
D03*
Y1106800D02*
D03*
X4507600Y1081400D02*
D03*
Y1106800D02*
D03*
X4482200Y1081400D02*
D03*
Y1106800D02*
D03*
X4456800Y1081400D02*
D03*
Y1106800D02*
D03*
X4431400Y1081400D02*
D03*
Y1106800D02*
D03*
D14*
X4543250Y1338600D02*
D03*
X4456750D02*
D03*
D15*
X4543250Y1304800D02*
D03*
X4456750D02*
D03*
D16*
X4529750Y1295000D02*
D03*
X4521250D02*
D03*
X4478750Y1308500D02*
D03*
X4487250D02*
D03*
X4495750D02*
D03*
X4504250D02*
D03*
X4512750D02*
D03*
X4521250D02*
D03*
X4529750D02*
D03*
X4470250D02*
D03*
X4512750Y1295000D02*
D03*
X4504250D02*
D03*
X4495750D02*
D03*
X4487250D02*
D03*
X4478750D02*
D03*
X4470250D02*
D03*
D17*
X3912500Y1236000D02*
D03*
Y994000D02*
D03*
X4335000Y1240000D02*
D03*
Y990000D02*
D03*
X4397875Y865500D02*
D03*
X4448675D02*
D03*
X4347075D02*
D03*
X4207375D02*
D03*
X4258175D02*
D03*
X4156575D02*
D03*
X4016875D02*
D03*
X4067675D02*
D03*
X3966075D02*
D03*
X3540625Y1246500D02*
D03*
X3591425D02*
D03*
X3489825D02*
D03*
X3350125D02*
D03*
X3400925D02*
D03*
X3299325D02*
D03*
X4397875Y675000D02*
D03*
X4448675D02*
D03*
X4347075D02*
D03*
X4207375D02*
D03*
X4258175D02*
D03*
X4156575D02*
D03*
X4016875D02*
D03*
X4067675D02*
D03*
X3966075D02*
D03*
X3540625Y1056000D02*
D03*
X3591425D02*
D03*
X3489825D02*
D03*
X3350125D02*
D03*
X3400925D02*
D03*
X3299325D02*
D03*
X4397875Y484500D02*
D03*
X4448675D02*
D03*
X4347075D02*
D03*
X4207375D02*
D03*
X4258175D02*
D03*
X4156575D02*
D03*
X4016875D02*
D03*
X4067675D02*
D03*
X3966075D02*
D03*
X3731125Y1246500D02*
D03*
X3781925D02*
D03*
X3680325D02*
D03*
X3350125Y865500D02*
D03*
X3400925D02*
D03*
X3299325D02*
D03*
X4397875Y294000D02*
D03*
X4448675D02*
D03*
X4347075D02*
D03*
X4207375D02*
D03*
X4258175D02*
D03*
X4156575D02*
D03*
X4016875D02*
D03*
X4067675D02*
D03*
X3966075D02*
D03*
X3731125Y103500D02*
D03*
X3781925D02*
D03*
X3680325D02*
D03*
X3731125Y1056000D02*
D03*
X3781925D02*
D03*
X3680325D02*
D03*
X3350125Y675000D02*
D03*
X3400925D02*
D03*
X3299325D02*
D03*
X4588375Y865500D02*
D03*
X4639175D02*
D03*
X4537575D02*
D03*
X4112125Y103500D02*
D03*
X4162925D02*
D03*
X4061325D02*
D03*
X3540625Y294000D02*
D03*
X3591425D02*
D03*
X3489825D02*
D03*
X3731125Y865500D02*
D03*
X3781925D02*
D03*
X3680325D02*
D03*
X3540625D02*
D03*
X3591425D02*
D03*
X3489825D02*
D03*
X4588375Y579750D02*
D03*
X4639175D02*
D03*
X4537575D02*
D03*
X4397875Y103500D02*
D03*
X4448675D02*
D03*
X4347075D02*
D03*
X3540625D02*
D03*
X3591425D02*
D03*
X3489825D02*
D03*
X3731125Y675000D02*
D03*
X3781925D02*
D03*
X3680325D02*
D03*
X3540625D02*
D03*
X3591425D02*
D03*
X3489825D02*
D03*
X4588375Y198750D02*
D03*
X4639175D02*
D03*
X4537575D02*
D03*
X3350125Y103500D02*
D03*
X3400925D02*
D03*
X3299325D02*
D03*
X3064375Y1246500D02*
D03*
X3115175D02*
D03*
X3013575D02*
D03*
X2873875D02*
D03*
X2924675D02*
D03*
X2823075D02*
D03*
X2683375D02*
D03*
X2734175D02*
D03*
X2632575D02*
D03*
X2492875D02*
D03*
X2543675D02*
D03*
X2442075D02*
D03*
X2302375D02*
D03*
X2353175D02*
D03*
X2251575D02*
D03*
X2111875D02*
D03*
X2162675D02*
D03*
X2061075D02*
D03*
X1921375D02*
D03*
X1972175D02*
D03*
X1870575D02*
D03*
X1730875D02*
D03*
X1781675D02*
D03*
X1680075D02*
D03*
X1540375D02*
D03*
X1591175D02*
D03*
X1489575D02*
D03*
X1349875D02*
D03*
X1400675D02*
D03*
X1299075D02*
D03*
X1159375D02*
D03*
X1210175D02*
D03*
X1108575D02*
D03*
X968875D02*
D03*
X1019675D02*
D03*
X918075D02*
D03*
X778375D02*
D03*
X829175D02*
D03*
X727575D02*
D03*
X587875D02*
D03*
X638675D02*
D03*
X537075D02*
D03*
X397375D02*
D03*
X448175D02*
D03*
X346575D02*
D03*
X111625D02*
D03*
X162425D02*
D03*
X60825D02*
D03*
X3064375Y1056000D02*
D03*
X3115175D02*
D03*
X3013575D02*
D03*
X2873875D02*
D03*
X2924675D02*
D03*
X2823075D02*
D03*
X2683375D02*
D03*
X2734175D02*
D03*
X2632575D02*
D03*
X2492875D02*
D03*
X2543675D02*
D03*
X2442075D02*
D03*
X2302375D02*
D03*
X2353175D02*
D03*
X2251575D02*
D03*
X2111875D02*
D03*
X2162675D02*
D03*
X2061075D02*
D03*
X1921375D02*
D03*
X1972175D02*
D03*
X1870575D02*
D03*
X1730875D02*
D03*
X1781675D02*
D03*
X1680075D02*
D03*
X1540375D02*
D03*
X1591175D02*
D03*
X1489575D02*
D03*
X1349875D02*
D03*
X1400675D02*
D03*
X1299075D02*
D03*
X1159375D02*
D03*
X1210175D02*
D03*
X1108575D02*
D03*
X968875D02*
D03*
X1019675D02*
D03*
X918075D02*
D03*
X778375D02*
D03*
X829175D02*
D03*
X727575D02*
D03*
X587875D02*
D03*
X638675D02*
D03*
X537075D02*
D03*
X397375D02*
D03*
X448175D02*
D03*
X346575D02*
D03*
X111625D02*
D03*
X162425D02*
D03*
X60825D02*
D03*
X2969125Y865500D02*
D03*
X3019925D02*
D03*
X2918325D02*
D03*
X2683375D02*
D03*
X2734175D02*
D03*
X2632575D02*
D03*
X2492875D02*
D03*
X2543675D02*
D03*
X2442075D02*
D03*
X2302375D02*
D03*
X2353175D02*
D03*
X2251575D02*
D03*
X2111875D02*
D03*
X2162675D02*
D03*
X2061075D02*
D03*
X1921375D02*
D03*
X1972175D02*
D03*
X1870575D02*
D03*
X1730875D02*
D03*
X1781675D02*
D03*
X1680075D02*
D03*
X1540375D02*
D03*
X1591175D02*
D03*
X1489575D02*
D03*
X1349875D02*
D03*
X1400675D02*
D03*
X1299075D02*
D03*
X1159375D02*
D03*
X1210175D02*
D03*
X1108575D02*
D03*
X968875D02*
D03*
X1019675D02*
D03*
X918075D02*
D03*
X778375D02*
D03*
X829175D02*
D03*
X727575D02*
D03*
X587875D02*
D03*
X638675D02*
D03*
X537075D02*
D03*
X397375D02*
D03*
X448175D02*
D03*
X346575D02*
D03*
X111625D02*
D03*
X162425D02*
D03*
X60825D02*
D03*
X3040565Y579750D02*
D03*
X3091365D02*
D03*
X2989765D02*
D03*
X2778625Y675000D02*
D03*
X2829425D02*
D03*
X2727825D02*
D03*
X2588125D02*
D03*
X2638925D02*
D03*
X2537325D02*
D03*
X2397625D02*
D03*
X2448425D02*
D03*
X2346825D02*
D03*
X2207125D02*
D03*
X2257925D02*
D03*
X2156325D02*
D03*
X2016625D02*
D03*
X2067425D02*
D03*
X1965825D02*
D03*
X1826125D02*
D03*
X1876925D02*
D03*
X1775325D02*
D03*
X1635625D02*
D03*
X1686425D02*
D03*
X1584825D02*
D03*
X1445125D02*
D03*
X1495925D02*
D03*
X1394325D02*
D03*
X1254625D02*
D03*
X1305425D02*
D03*
X1203825D02*
D03*
X1064125D02*
D03*
X1114925D02*
D03*
X1013325D02*
D03*
X873625D02*
D03*
X924425D02*
D03*
X822825D02*
D03*
X683125D02*
D03*
X733925D02*
D03*
X632325D02*
D03*
X445000D02*
D03*
X495800D02*
D03*
X394200D02*
D03*
X111625D02*
D03*
X162425D02*
D03*
X60825D02*
D03*
X2826255Y484500D02*
D03*
X2877055D02*
D03*
X2775455D02*
D03*
X2635755D02*
D03*
X2686555D02*
D03*
X2584955D02*
D03*
X2445255D02*
D03*
X2496055D02*
D03*
X2394455D02*
D03*
X2254755D02*
D03*
X2305555D02*
D03*
X2203955D02*
D03*
X2064255D02*
D03*
X2115055D02*
D03*
X2013455D02*
D03*
X1873755D02*
D03*
X1924555D02*
D03*
X1822955D02*
D03*
X1683255D02*
D03*
X1734055D02*
D03*
X1632455D02*
D03*
X1492755D02*
D03*
X1543555D02*
D03*
X1441955D02*
D03*
X1302255D02*
D03*
X1353055D02*
D03*
X1251455D02*
D03*
X1111755D02*
D03*
X1162555D02*
D03*
X1060955D02*
D03*
X921255D02*
D03*
X972055D02*
D03*
X870455D02*
D03*
X730755D02*
D03*
X781555D02*
D03*
X679955D02*
D03*
X468813D02*
D03*
X519613D02*
D03*
X418013D02*
D03*
X111625D02*
D03*
X162425D02*
D03*
X60825D02*
D03*
X2897685Y294000D02*
D03*
X2948485D02*
D03*
X2846885D02*
D03*
X2540505D02*
D03*
X2591305D02*
D03*
X2489705D02*
D03*
X2350005D02*
D03*
X2400805D02*
D03*
X2299205D02*
D03*
X2159505D02*
D03*
X2210305D02*
D03*
X2108705D02*
D03*
X1969005D02*
D03*
X2019805D02*
D03*
X1918205D02*
D03*
X1778505D02*
D03*
X1829305D02*
D03*
X1727705D02*
D03*
X1588005D02*
D03*
X1638805D02*
D03*
X1537205D02*
D03*
X1397505D02*
D03*
X1448305D02*
D03*
X1346705D02*
D03*
X1207005D02*
D03*
X1257805D02*
D03*
X1156205D02*
D03*
X1016505D02*
D03*
X1067305D02*
D03*
X965705D02*
D03*
X826005D02*
D03*
X876805D02*
D03*
X775205D02*
D03*
X635505D02*
D03*
X686305D02*
D03*
X584705D02*
D03*
X421188D02*
D03*
X471988D02*
D03*
X370388D02*
D03*
X111625D02*
D03*
X162425D02*
D03*
X60825D02*
D03*
X3040565Y103500D02*
D03*
X3091365D02*
D03*
X2989765D02*
D03*
X2802435D02*
D03*
X2853235D02*
D03*
X2751635D02*
D03*
X2564315D02*
D03*
X2615115D02*
D03*
X2513515D02*
D03*
X2326185D02*
D03*
X2376985D02*
D03*
X2275385D02*
D03*
X1611815D02*
D03*
X1662615D02*
D03*
X1561015D02*
D03*
X897435D02*
D03*
X948235D02*
D03*
X846635D02*
D03*
X659315D02*
D03*
X710115D02*
D03*
X608515D02*
D03*
X421188D02*
D03*
X471988D02*
D03*
X370388D02*
D03*
X111625D02*
D03*
X162425D02*
D03*
X60825D02*
D03*
D18*
X4435975Y814700D02*
D03*
X4410575D02*
D03*
X4385175D02*
D03*
X4359775D02*
D03*
X4245475D02*
D03*
X4220075D02*
D03*
X4194675D02*
D03*
X4169275D02*
D03*
X4054975D02*
D03*
X4029575D02*
D03*
X4004175D02*
D03*
X3978775D02*
D03*
X3578725Y1195700D02*
D03*
X3553325D02*
D03*
X3527925D02*
D03*
X3502525D02*
D03*
X3388225D02*
D03*
X3362825D02*
D03*
X3337425D02*
D03*
X3312025D02*
D03*
X4435975Y624200D02*
D03*
X4410575D02*
D03*
X4385175D02*
D03*
X4359775D02*
D03*
X4245475D02*
D03*
X4220075D02*
D03*
X4194675D02*
D03*
X4169275D02*
D03*
X4054975D02*
D03*
X4029575D02*
D03*
X4004175D02*
D03*
X3978775D02*
D03*
X3578725Y1005200D02*
D03*
X3553325D02*
D03*
X3527925D02*
D03*
X3502525D02*
D03*
X3388225D02*
D03*
X3362825D02*
D03*
X3337425D02*
D03*
X3312025D02*
D03*
X4435975Y433700D02*
D03*
X4410575D02*
D03*
X4385175D02*
D03*
X4359775D02*
D03*
X4245475D02*
D03*
X4220075D02*
D03*
X4194675D02*
D03*
X4169275D02*
D03*
X4054975D02*
D03*
X4029575D02*
D03*
X4004175D02*
D03*
X3978775D02*
D03*
X3769225Y1195700D02*
D03*
X3743825D02*
D03*
X3718425D02*
D03*
X3693025D02*
D03*
X3388225Y814700D02*
D03*
X3362825D02*
D03*
X3337425D02*
D03*
X3312025D02*
D03*
X4435975Y243200D02*
D03*
X4410575D02*
D03*
X4385175D02*
D03*
X4359775D02*
D03*
X4245475D02*
D03*
X4220075D02*
D03*
X4194675D02*
D03*
X4169275D02*
D03*
X4054975D02*
D03*
X4029575D02*
D03*
X4004175D02*
D03*
X3978775D02*
D03*
X3769225Y52700D02*
D03*
X3743825D02*
D03*
X3718425D02*
D03*
X3693025D02*
D03*
X3769225Y1005200D02*
D03*
X3743825D02*
D03*
X3718425D02*
D03*
X3693025D02*
D03*
X3388225Y624200D02*
D03*
X3362825D02*
D03*
X3337425D02*
D03*
X3312025D02*
D03*
X4626475Y814700D02*
D03*
X4601075D02*
D03*
X4575675D02*
D03*
X4550275D02*
D03*
X4150225Y52700D02*
D03*
X4124825D02*
D03*
X4099425D02*
D03*
X4074025D02*
D03*
X3578725Y243200D02*
D03*
X3553325D02*
D03*
X3527925D02*
D03*
X3502525D02*
D03*
X3769225Y814700D02*
D03*
X3743825D02*
D03*
X3718425D02*
D03*
X3693025D02*
D03*
X3578725D02*
D03*
X3553325D02*
D03*
X3527925D02*
D03*
X3502525D02*
D03*
X4626475Y528950D02*
D03*
X4601075D02*
D03*
X4575675D02*
D03*
X4550275D02*
D03*
X4435975Y52700D02*
D03*
X4410575D02*
D03*
X4385175D02*
D03*
X4359775D02*
D03*
X3578725D02*
D03*
X3553325D02*
D03*
X3527925D02*
D03*
X3502525D02*
D03*
X3769225Y624200D02*
D03*
X3743825D02*
D03*
X3718425D02*
D03*
X3693025D02*
D03*
X3578725D02*
D03*
X3553325D02*
D03*
X3527925D02*
D03*
X3502525D02*
D03*
X4626475Y147950D02*
D03*
X4601075D02*
D03*
X4575675D02*
D03*
X4550275D02*
D03*
X3388225Y52700D02*
D03*
X3362825D02*
D03*
X3337425D02*
D03*
X3312025D02*
D03*
X3102475Y1195700D02*
D03*
X3077075D02*
D03*
X3051675D02*
D03*
X3026275D02*
D03*
X2911975D02*
D03*
X2886575D02*
D03*
X2861175D02*
D03*
X2835775D02*
D03*
X2721475D02*
D03*
X2696075D02*
D03*
X2670675D02*
D03*
X2645275D02*
D03*
X2530975D02*
D03*
X2505575D02*
D03*
X2480175D02*
D03*
X2454775D02*
D03*
X2340475D02*
D03*
X2315075D02*
D03*
X2289675D02*
D03*
X2264275D02*
D03*
X2149975D02*
D03*
X2124575D02*
D03*
X2099175D02*
D03*
X2073775D02*
D03*
X1959475D02*
D03*
X1934075D02*
D03*
X1908675D02*
D03*
X1883275D02*
D03*
X1768975D02*
D03*
X1743575D02*
D03*
X1718175D02*
D03*
X1692775D02*
D03*
X1578475D02*
D03*
X1553075D02*
D03*
X1527675D02*
D03*
X1502275D02*
D03*
X1387975D02*
D03*
X1362575D02*
D03*
X1337175D02*
D03*
X1311775D02*
D03*
X1197475D02*
D03*
X1172075D02*
D03*
X1146675D02*
D03*
X1121275D02*
D03*
X1006975D02*
D03*
X981575D02*
D03*
X956175D02*
D03*
X930775D02*
D03*
X816475D02*
D03*
X791075D02*
D03*
X765675D02*
D03*
X740275D02*
D03*
X625975D02*
D03*
X600575D02*
D03*
X575175D02*
D03*
X549775D02*
D03*
X435475D02*
D03*
X410075D02*
D03*
X384675D02*
D03*
X359275D02*
D03*
X149725D02*
D03*
X124325D02*
D03*
X98925D02*
D03*
X73525D02*
D03*
X3102475Y1005200D02*
D03*
X3077075D02*
D03*
X3051675D02*
D03*
X3026275D02*
D03*
X2911975D02*
D03*
X2886575D02*
D03*
X2861175D02*
D03*
X2835775D02*
D03*
X2721475D02*
D03*
X2696075D02*
D03*
X2670675D02*
D03*
X2645275D02*
D03*
X2530975D02*
D03*
X2505575D02*
D03*
X2480175D02*
D03*
X2454775D02*
D03*
X2340475D02*
D03*
X2315075D02*
D03*
X2289675D02*
D03*
X2264275D02*
D03*
X2149975D02*
D03*
X2124575D02*
D03*
X2099175D02*
D03*
X2073775D02*
D03*
X1959475D02*
D03*
X1934075D02*
D03*
X1908675D02*
D03*
X1883275D02*
D03*
X1768975D02*
D03*
X1743575D02*
D03*
X1718175D02*
D03*
X1692775D02*
D03*
X1578475D02*
D03*
X1553075D02*
D03*
X1527675D02*
D03*
X1502275D02*
D03*
X1387975D02*
D03*
X1362575D02*
D03*
X1337175D02*
D03*
X1311775D02*
D03*
X1197475D02*
D03*
X1172075D02*
D03*
X1146675D02*
D03*
X1121275D02*
D03*
X1006975D02*
D03*
X981575D02*
D03*
X956175D02*
D03*
X930775D02*
D03*
X816475D02*
D03*
X791075D02*
D03*
X765675D02*
D03*
X740275D02*
D03*
X625975D02*
D03*
X600575D02*
D03*
X575175D02*
D03*
X549775D02*
D03*
X435475D02*
D03*
X410075D02*
D03*
X384675D02*
D03*
X359275D02*
D03*
X149725D02*
D03*
X124325D02*
D03*
X98925D02*
D03*
X73525D02*
D03*
X3007225Y814700D02*
D03*
X2981825D02*
D03*
X2956425D02*
D03*
X2931025D02*
D03*
X2721475D02*
D03*
X2696075D02*
D03*
X2670675D02*
D03*
X2645275D02*
D03*
X2530975D02*
D03*
X2505575D02*
D03*
X2480175D02*
D03*
X2454775D02*
D03*
X2340475D02*
D03*
X2315075D02*
D03*
X2289675D02*
D03*
X2264275D02*
D03*
X2149975D02*
D03*
X2124575D02*
D03*
X2099175D02*
D03*
X2073775D02*
D03*
X1959475D02*
D03*
X1934075D02*
D03*
X1908675D02*
D03*
X1883275D02*
D03*
X1768975D02*
D03*
X1743575D02*
D03*
X1718175D02*
D03*
X1692775D02*
D03*
X1578475D02*
D03*
X1553075D02*
D03*
X1527675D02*
D03*
X1502275D02*
D03*
X1387975D02*
D03*
X1362575D02*
D03*
X1337175D02*
D03*
X1311775D02*
D03*
X1197475D02*
D03*
X1172075D02*
D03*
X1146675D02*
D03*
X1121275D02*
D03*
X1006975D02*
D03*
X981575D02*
D03*
X956175D02*
D03*
X930775D02*
D03*
X816475D02*
D03*
X791075D02*
D03*
X765675D02*
D03*
X740275D02*
D03*
X625975D02*
D03*
X600575D02*
D03*
X575175D02*
D03*
X549775D02*
D03*
X435475D02*
D03*
X410075D02*
D03*
X384675D02*
D03*
X359275D02*
D03*
X149725D02*
D03*
X124325D02*
D03*
X98925D02*
D03*
X73525D02*
D03*
X3078665Y528950D02*
D03*
X3053265D02*
D03*
X3027865D02*
D03*
X3002465D02*
D03*
X2816725Y624200D02*
D03*
X2791325D02*
D03*
X2765925D02*
D03*
X2740525D02*
D03*
X2626225D02*
D03*
X2600825D02*
D03*
X2575425D02*
D03*
X2550025D02*
D03*
X2435725D02*
D03*
X2410325D02*
D03*
X2384925D02*
D03*
X2359525D02*
D03*
X2245225D02*
D03*
X2219825D02*
D03*
X2194425D02*
D03*
X2169025D02*
D03*
X2054725D02*
D03*
X2029325D02*
D03*
X2003925D02*
D03*
X1978525D02*
D03*
X1864225D02*
D03*
X1838825D02*
D03*
X1813425D02*
D03*
X1788025D02*
D03*
X1673725D02*
D03*
X1648325D02*
D03*
X1622925D02*
D03*
X1597525D02*
D03*
X1483225D02*
D03*
X1457825D02*
D03*
X1432425D02*
D03*
X1407025D02*
D03*
X1292725D02*
D03*
X1267325D02*
D03*
X1241925D02*
D03*
X1216525D02*
D03*
X1102225D02*
D03*
X1076825D02*
D03*
X1051425D02*
D03*
X1026025D02*
D03*
X911725D02*
D03*
X886325D02*
D03*
X860925D02*
D03*
X835525D02*
D03*
X721225D02*
D03*
X695825D02*
D03*
X670425D02*
D03*
X645025D02*
D03*
X483100D02*
D03*
X457700D02*
D03*
X432300D02*
D03*
X406900D02*
D03*
X149725D02*
D03*
X124325D02*
D03*
X98925D02*
D03*
X73525D02*
D03*
X2864355Y433700D02*
D03*
X2838955D02*
D03*
X2813555D02*
D03*
X2788155D02*
D03*
X2673855D02*
D03*
X2648455D02*
D03*
X2623055D02*
D03*
X2597655D02*
D03*
X2483355D02*
D03*
X2457955D02*
D03*
X2432555D02*
D03*
X2407155D02*
D03*
X2292855D02*
D03*
X2267455D02*
D03*
X2242055D02*
D03*
X2216655D02*
D03*
X2102355D02*
D03*
X2076955D02*
D03*
X2051555D02*
D03*
X2026155D02*
D03*
X1911855D02*
D03*
X1886455D02*
D03*
X1861055D02*
D03*
X1835655D02*
D03*
X1721355D02*
D03*
X1695955D02*
D03*
X1670555D02*
D03*
X1645155D02*
D03*
X1530855D02*
D03*
X1505455D02*
D03*
X1480055D02*
D03*
X1454655D02*
D03*
X1340355D02*
D03*
X1314955D02*
D03*
X1289555D02*
D03*
X1264155D02*
D03*
X1149855D02*
D03*
X1124455D02*
D03*
X1099055D02*
D03*
X1073655D02*
D03*
X959355D02*
D03*
X933955D02*
D03*
X908555D02*
D03*
X883155D02*
D03*
X768855D02*
D03*
X743455D02*
D03*
X718055D02*
D03*
X692655D02*
D03*
X506913D02*
D03*
X481513D02*
D03*
X456113D02*
D03*
X430713D02*
D03*
X149725D02*
D03*
X124325D02*
D03*
X98925D02*
D03*
X73525D02*
D03*
X2935785Y243200D02*
D03*
X2910385D02*
D03*
X2884985D02*
D03*
X2859585D02*
D03*
X2578605D02*
D03*
X2553205D02*
D03*
X2527805D02*
D03*
X2502405D02*
D03*
X2388105D02*
D03*
X2362705D02*
D03*
X2337305D02*
D03*
X2311905D02*
D03*
X2197605D02*
D03*
X2172205D02*
D03*
X2146805D02*
D03*
X2121405D02*
D03*
X2007105D02*
D03*
X1981705D02*
D03*
X1956305D02*
D03*
X1930905D02*
D03*
X1816605D02*
D03*
X1791205D02*
D03*
X1765805D02*
D03*
X1740405D02*
D03*
X1626105D02*
D03*
X1600705D02*
D03*
X1575305D02*
D03*
X1549905D02*
D03*
X1435605D02*
D03*
X1410205D02*
D03*
X1384805D02*
D03*
X1359405D02*
D03*
X1245105D02*
D03*
X1219705D02*
D03*
X1194305D02*
D03*
X1168905D02*
D03*
X1054605D02*
D03*
X1029205D02*
D03*
X1003805D02*
D03*
X978405D02*
D03*
X864105D02*
D03*
X838705D02*
D03*
X813305D02*
D03*
X787905D02*
D03*
X673605D02*
D03*
X648205D02*
D03*
X622805D02*
D03*
X597405D02*
D03*
X459288D02*
D03*
X433888D02*
D03*
X408488D02*
D03*
X383088D02*
D03*
X149725D02*
D03*
X124325D02*
D03*
X98925D02*
D03*
X73525D02*
D03*
X3078665Y52700D02*
D03*
X3053265D02*
D03*
X3027865D02*
D03*
X3002465D02*
D03*
X2840535D02*
D03*
X2815135D02*
D03*
X2789735D02*
D03*
X2764335D02*
D03*
X2602415D02*
D03*
X2577015D02*
D03*
X2551615D02*
D03*
X2526215D02*
D03*
X2364285D02*
D03*
X2338885D02*
D03*
X2313485D02*
D03*
X2288085D02*
D03*
X1649915D02*
D03*
X1624515D02*
D03*
X1599115D02*
D03*
X1573715D02*
D03*
X935535D02*
D03*
X910135D02*
D03*
X884735D02*
D03*
X859335D02*
D03*
X697415D02*
D03*
X672015D02*
D03*
X646615D02*
D03*
X621215D02*
D03*
X459288D02*
D03*
X433888D02*
D03*
X408488D02*
D03*
X383088D02*
D03*
X149725D02*
D03*
X124325D02*
D03*
X98925D02*
D03*
X73525D02*
D03*
D19*
X4423275Y916300D02*
D03*
X4359775Y890900D02*
D03*
X4232775Y916300D02*
D03*
X4169275Y890900D02*
D03*
X4042275Y916300D02*
D03*
X3978775Y890900D02*
D03*
X3566025Y1297300D02*
D03*
X3502525Y1271900D02*
D03*
X3375525Y1297300D02*
D03*
X3312025Y1271900D02*
D03*
X4423275Y725800D02*
D03*
X4359775Y700400D02*
D03*
X4232775Y725800D02*
D03*
X4169275Y700400D02*
D03*
X4042275Y725800D02*
D03*
X3978775Y700400D02*
D03*
X3566025Y1106800D02*
D03*
X3502525Y1081400D02*
D03*
X3375525Y1106800D02*
D03*
X3312025Y1081400D02*
D03*
X4423275Y535300D02*
D03*
X4359775Y509900D02*
D03*
X4232775Y535300D02*
D03*
X4169275Y509900D02*
D03*
X4042275Y535300D02*
D03*
X3978775Y509900D02*
D03*
X3756525Y1297300D02*
D03*
X3693025Y1271900D02*
D03*
X3375525Y916300D02*
D03*
X3312025Y890900D02*
D03*
X4423275Y344800D02*
D03*
X4359775Y319400D02*
D03*
X4232775Y344800D02*
D03*
X4169275Y319400D02*
D03*
X4042275Y344800D02*
D03*
X3978775Y319400D02*
D03*
X3756525Y154300D02*
D03*
X3693025Y128900D02*
D03*
X3756525Y1106800D02*
D03*
X3693025Y1081400D02*
D03*
X3375525Y725800D02*
D03*
X3312025Y700400D02*
D03*
X4613775Y916300D02*
D03*
X4550275Y890900D02*
D03*
X4137525Y154300D02*
D03*
X4074025Y128900D02*
D03*
X3566025Y344800D02*
D03*
X3502525Y319400D02*
D03*
X3756525Y916300D02*
D03*
X3693025Y890900D02*
D03*
X3566025Y916300D02*
D03*
X3502525Y890900D02*
D03*
X4613775Y630550D02*
D03*
X4550275Y605150D02*
D03*
X4423275Y154300D02*
D03*
X4359775Y128900D02*
D03*
X3566025Y154300D02*
D03*
X3502525Y128900D02*
D03*
X3756525Y725800D02*
D03*
X3693025Y700400D02*
D03*
X3566025Y725800D02*
D03*
X3502525Y700400D02*
D03*
X4613775Y249550D02*
D03*
X4550275Y224150D02*
D03*
X3375525Y154300D02*
D03*
X3312025Y128900D02*
D03*
X3089775Y1297300D02*
D03*
X3026275Y1271900D02*
D03*
X2899275Y1297300D02*
D03*
X2835775Y1271900D02*
D03*
X2708775Y1297300D02*
D03*
X2645275Y1271900D02*
D03*
X2518275Y1297300D02*
D03*
X2454775Y1271900D02*
D03*
X2327775Y1297300D02*
D03*
X2264275Y1271900D02*
D03*
X2137275Y1297300D02*
D03*
X2073775Y1271900D02*
D03*
X1946775Y1297300D02*
D03*
X1883275Y1271900D02*
D03*
X1756275Y1297300D02*
D03*
X1692775Y1271900D02*
D03*
X1565775Y1297300D02*
D03*
X1502275Y1271900D02*
D03*
X1375275Y1297300D02*
D03*
X1311775Y1271900D02*
D03*
X1184775Y1297300D02*
D03*
X1121275Y1271900D02*
D03*
X994275Y1297300D02*
D03*
X930775Y1271900D02*
D03*
X803775Y1297300D02*
D03*
X740275Y1271900D02*
D03*
X613275Y1297300D02*
D03*
X549775Y1271900D02*
D03*
X422775Y1297300D02*
D03*
X359275Y1271900D02*
D03*
X137025Y1297300D02*
D03*
X73525Y1271900D02*
D03*
X3089775Y1106800D02*
D03*
X3026275Y1081400D02*
D03*
X2899275Y1106800D02*
D03*
X2835775Y1081400D02*
D03*
X2708775Y1106800D02*
D03*
X2645275Y1081400D02*
D03*
X2518275Y1106800D02*
D03*
X2454775Y1081400D02*
D03*
X2327775Y1106800D02*
D03*
X2264275Y1081400D02*
D03*
X2137275Y1106800D02*
D03*
X2073775Y1081400D02*
D03*
X1946775Y1106800D02*
D03*
X1883275Y1081400D02*
D03*
X1756275Y1106800D02*
D03*
X1692775Y1081400D02*
D03*
X1565775Y1106800D02*
D03*
X1502275Y1081400D02*
D03*
X1375275Y1106800D02*
D03*
X1311775Y1081400D02*
D03*
X1184775Y1106800D02*
D03*
X1121275Y1081400D02*
D03*
X994275Y1106800D02*
D03*
X930775Y1081400D02*
D03*
X803775Y1106800D02*
D03*
X740275Y1081400D02*
D03*
X613275Y1106800D02*
D03*
X549775Y1081400D02*
D03*
X422775Y1106800D02*
D03*
X359275Y1081400D02*
D03*
X137025Y1106800D02*
D03*
X73525Y1081400D02*
D03*
X2994525Y916300D02*
D03*
X2931025Y890900D02*
D03*
X2708775Y916300D02*
D03*
X2645275Y890900D02*
D03*
X2518275Y916300D02*
D03*
X2454775Y890900D02*
D03*
X2327775Y916300D02*
D03*
X2264275Y890900D02*
D03*
X2137275Y916300D02*
D03*
X2073775Y890900D02*
D03*
X1946775Y916300D02*
D03*
X1883275Y890900D02*
D03*
X1756275Y916300D02*
D03*
X1692775Y890900D02*
D03*
X1565775Y916300D02*
D03*
X1502275Y890900D02*
D03*
X1375275Y916300D02*
D03*
X1311775Y890900D02*
D03*
X1184775Y916300D02*
D03*
X1121275Y890900D02*
D03*
X994275Y916300D02*
D03*
X930775Y890900D02*
D03*
X803775Y916300D02*
D03*
X740275Y890900D02*
D03*
X613275Y916300D02*
D03*
X549775Y890900D02*
D03*
X422775Y916300D02*
D03*
X359275Y890900D02*
D03*
X137025Y916300D02*
D03*
X73525Y890900D02*
D03*
X3065965Y630550D02*
D03*
X3002465Y605150D02*
D03*
X2804025Y725800D02*
D03*
X2740525Y700400D02*
D03*
X2613525Y725800D02*
D03*
X2550025Y700400D02*
D03*
X2423025Y725800D02*
D03*
X2359525Y700400D02*
D03*
X2232525Y725800D02*
D03*
X2169025Y700400D02*
D03*
X2042025Y725800D02*
D03*
X1978525Y700400D02*
D03*
X1851525Y725800D02*
D03*
X1788025Y700400D02*
D03*
X1661025Y725800D02*
D03*
X1597525Y700400D02*
D03*
X1470525Y725800D02*
D03*
X1407025Y700400D02*
D03*
X1280025Y725800D02*
D03*
X1216525Y700400D02*
D03*
X1089525Y725800D02*
D03*
X1026025Y700400D02*
D03*
X899025Y725800D02*
D03*
X835525Y700400D02*
D03*
X708525Y725800D02*
D03*
X645025Y700400D02*
D03*
X470400Y725800D02*
D03*
X406900Y700400D02*
D03*
X137025Y725800D02*
D03*
X73525Y700400D02*
D03*
X2851655Y535300D02*
D03*
X2788155Y509900D02*
D03*
X2661155Y535300D02*
D03*
X2597655Y509900D02*
D03*
X2470655Y535300D02*
D03*
X2407155Y509900D02*
D03*
X2280155Y535300D02*
D03*
X2216655Y509900D02*
D03*
X2089655Y535300D02*
D03*
X2026155Y509900D02*
D03*
X1899155Y535300D02*
D03*
X1835655Y509900D02*
D03*
X1708655Y535300D02*
D03*
X1645155Y509900D02*
D03*
X1518155Y535300D02*
D03*
X1454655Y509900D02*
D03*
X1327655Y535300D02*
D03*
X1264155Y509900D02*
D03*
X1137155Y535300D02*
D03*
X1073655Y509900D02*
D03*
X946655Y535300D02*
D03*
X883155Y509900D02*
D03*
X756155Y535300D02*
D03*
X692655Y509900D02*
D03*
X494213Y535300D02*
D03*
X430713Y509900D02*
D03*
X137025Y535300D02*
D03*
X73525Y509900D02*
D03*
X2923085Y344800D02*
D03*
X2859585Y319400D02*
D03*
X2565905Y344800D02*
D03*
X2502405Y319400D02*
D03*
X2375405Y344800D02*
D03*
X2311905Y319400D02*
D03*
X2184905Y344800D02*
D03*
X2121405Y319400D02*
D03*
X1994405Y344800D02*
D03*
X1930905Y319400D02*
D03*
X1803905Y344800D02*
D03*
X1740405Y319400D02*
D03*
X1613405Y344800D02*
D03*
X1549905Y319400D02*
D03*
X1422905Y344800D02*
D03*
X1359405Y319400D02*
D03*
X1232405Y344800D02*
D03*
X1168905Y319400D02*
D03*
X1041905Y344800D02*
D03*
X978405Y319400D02*
D03*
X851405Y344800D02*
D03*
X787905Y319400D02*
D03*
X660905Y344800D02*
D03*
X597405Y319400D02*
D03*
X446588Y344800D02*
D03*
X383088Y319400D02*
D03*
X137025Y344800D02*
D03*
X73525Y319400D02*
D03*
X3065965Y154300D02*
D03*
X3002465Y128900D02*
D03*
X2827835Y154300D02*
D03*
X2764335Y128900D02*
D03*
X2589715Y154300D02*
D03*
X2526215Y128900D02*
D03*
X2351585Y154300D02*
D03*
X2288085Y128900D02*
D03*
X1637215Y154300D02*
D03*
X1573715Y128900D02*
D03*
X922835Y154300D02*
D03*
X859335Y128900D02*
D03*
X684715Y154300D02*
D03*
X621215Y128900D02*
D03*
X446588Y154300D02*
D03*
X383088Y128900D02*
D03*
X137025Y154300D02*
D03*
X73525Y128900D02*
D03*
M02*
