G04*
G04 #@! TF.GenerationSoftware,Altium Limited,Altium Designer,20.0.7 (75)*
G04*
G04 Layer_Color=16711935*
%FSLAX44Y44*%
%MOMM*%
G71*
G01*
G75*
%ADD11R,0.7500X0.6500*%
G04:AMPARAMS|DCode=12|XSize=2.1mm|YSize=2.1mm|CornerRadius=0.55mm|HoleSize=0mm|Usage=FLASHONLY|Rotation=180.000|XOffset=0mm|YOffset=0mm|HoleType=Round|Shape=RoundedRectangle|*
%AMROUNDEDRECTD12*
21,1,2.1000,1.0000,0,0,180.0*
21,1,1.0000,2.1000,0,0,180.0*
1,1,1.1000,-0.5000,0.5000*
1,1,1.1000,0.5000,0.5000*
1,1,1.1000,0.5000,-0.5000*
1,1,1.1000,-0.5000,-0.5000*
%
%ADD12ROUNDEDRECTD12*%
%ADD13C,2.1000*%
%ADD14O,1.2000X2.0000*%
%ADD15O,1.2000X2.7000*%
%ADD16C,0.7000*%
%ADD17C,0.1000*%
%ADD18C,2.0000*%
%ADD19C,2.9000*%
%ADD51C,1.1000*%
%ADD52R,1.0000X1.6000*%
%ADD53R,0.7200X0.7600*%
%ADD54R,0.7600X0.7200*%
%ADD55R,0.6500X0.7500*%
%ADD56O,0.5500X1.5000*%
%ADD57R,1.5000X1.3000*%
%ADD58R,5.0000X2.6000*%
%ADD59R,2.1000X0.7000*%
%ADD60R,1.1000X0.7000*%
%ADD61R,0.7000X1.1000*%
%ADD62R,0.6500X1.1500*%
%ADD63R,1.6000X1.0000*%
%ADD64R,1.4000X1.6500*%
%ADD65R,1.0144X1.3192*%
G04:AMPARAMS|DCode=66|XSize=0.86mm|YSize=2.5mm|CornerRadius=0.24mm|HoleSize=0mm|Usage=FLASHONLY|Rotation=90.000|XOffset=0mm|YOffset=0mm|HoleType=Round|Shape=RoundedRectangle|*
%AMROUNDEDRECTD66*
21,1,0.8600,2.0200,0,0,90.0*
21,1,0.3800,2.5000,0,0,90.0*
1,1,0.4800,1.0100,0.1900*
1,1,0.4800,1.0100,-0.1900*
1,1,0.4800,-1.0100,-0.1900*
1,1,0.4800,-1.0100,0.1900*
%
%ADD66ROUNDEDRECTD66*%
%ADD67R,2.8000X1.3000*%
%ADD68R,2.0000X1.3000*%
%ADD69R,3.3000X2.4000*%
G36*
X3657274Y489834D02*
X3658607Y489686D01*
X3659903Y489427D01*
X3661125Y489057D01*
X3662273Y488649D01*
X3663310Y488205D01*
X3664273Y487723D01*
X3665162Y487242D01*
X3665940Y486724D01*
X3666643Y486242D01*
X3667236Y485798D01*
X3667754Y485390D01*
X3668124Y485020D01*
X3668421Y484761D01*
X3668569Y484613D01*
X3668643Y484539D01*
X3669532Y483502D01*
X3670309Y482428D01*
X3670976Y481317D01*
X3671532Y480206D01*
X3672013Y479095D01*
X3672420Y477984D01*
X3672754Y476910D01*
X3673013Y475873D01*
X3673235Y474910D01*
X3673383Y474021D01*
X3673494Y473243D01*
X3673568Y472540D01*
X3673606Y471984D01*
Y471762D01*
X3673643Y471577D01*
Y471392D01*
Y471281D01*
Y471244D01*
Y471207D01*
X3673568Y469688D01*
X3673420Y468207D01*
X3673198Y466837D01*
X3672865Y465541D01*
X3672495Y464356D01*
X3672050Y463208D01*
X3671606Y462208D01*
X3671124Y461282D01*
X3670680Y460467D01*
X3670235Y459726D01*
X3669791Y459097D01*
X3669421Y458578D01*
X3669088Y458171D01*
X3668865Y457875D01*
X3668680Y457727D01*
X3668643Y457653D01*
X3667680Y456764D01*
X3666643Y455949D01*
X3665606Y455282D01*
X3664532Y454690D01*
X3663458Y454171D01*
X3662384Y453764D01*
X3661347Y453431D01*
X3660348Y453134D01*
X3659422Y452949D01*
X3658570Y452764D01*
X3657792Y452653D01*
X3657126Y452579D01*
X3656570Y452542D01*
X3656348D01*
X3656163Y452505D01*
X3655829D01*
X3654867Y452542D01*
X3653904Y452653D01*
X3652978Y452801D01*
X3652089Y453023D01*
X3651237Y453283D01*
X3650423Y453579D01*
X3649682Y453875D01*
X3648978Y454171D01*
X3648312Y454468D01*
X3647756Y454801D01*
X3647275Y455060D01*
X3646830Y455319D01*
X3646497Y455542D01*
X3646238Y455690D01*
X3646090Y455801D01*
X3646053Y455838D01*
X3645201Y456504D01*
X3644386Y457208D01*
X3643609Y457949D01*
X3642831Y458726D01*
X3642127Y459541D01*
X3641461Y460319D01*
X3640831Y461097D01*
X3640239Y461874D01*
X3639720Y462578D01*
X3639239Y463245D01*
X3638831Y463837D01*
X3638498Y464356D01*
X3638239Y464800D01*
X3638016Y465133D01*
X3637905Y465318D01*
X3637868Y465392D01*
X3637128Y464133D01*
X3636387Y462985D01*
X3635646Y461874D01*
X3634943Y460911D01*
X3634202Y459986D01*
X3633499Y459171D01*
X3632832Y458430D01*
X3632202Y457764D01*
X3631647Y457171D01*
X3631091Y456690D01*
X3630647Y456245D01*
X3630240Y455912D01*
X3629906Y455653D01*
X3629647Y455467D01*
X3629499Y455356D01*
X3629462Y455319D01*
X3628573Y454764D01*
X3627721Y454282D01*
X3626833Y453875D01*
X3625944Y453505D01*
X3625055Y453209D01*
X3624240Y452949D01*
X3623426Y452727D01*
X3622648Y452579D01*
X3621944Y452431D01*
X3621315Y452357D01*
X3620759Y452283D01*
X3620240Y452209D01*
X3619870D01*
X3619574Y452172D01*
X3619315D01*
X3617907Y452246D01*
X3616574Y452394D01*
X3615315Y452690D01*
X3614130Y453023D01*
X3613019Y453431D01*
X3611982Y453912D01*
X3611019Y454394D01*
X3610168Y454912D01*
X3609390Y455393D01*
X3608686Y455912D01*
X3608094Y456356D01*
X3607612Y456764D01*
X3607242Y457097D01*
X3606946Y457393D01*
X3606797Y457541D01*
X3606724Y457615D01*
X3605835Y458689D01*
X3605057Y459800D01*
X3604390Y460911D01*
X3603835Y462059D01*
X3603354Y463170D01*
X3602946Y464281D01*
X3602613Y465355D01*
X3602354Y466392D01*
X3602131Y467355D01*
X3601983Y468207D01*
X3601872Y469022D01*
X3601798Y469688D01*
X3601761Y470244D01*
X3601724Y470466D01*
Y470651D01*
Y470799D01*
Y470910D01*
Y470947D01*
Y470984D01*
X3601761Y472503D01*
X3601946Y473910D01*
X3602168Y475280D01*
X3602465Y476539D01*
X3602835Y477761D01*
X3603242Y478835D01*
X3603687Y479872D01*
X3604131Y480798D01*
X3604613Y481613D01*
X3605057Y482354D01*
X3605464Y482983D01*
X3605798Y483502D01*
X3606131Y483909D01*
X3606353Y484205D01*
X3606501Y484353D01*
X3606575Y484427D01*
X3607501Y485353D01*
X3608501Y486168D01*
X3609538Y486835D01*
X3610612Y487464D01*
X3611686Y487946D01*
X3612723Y488390D01*
X3613760Y488723D01*
X3614760Y488983D01*
X3615685Y489205D01*
X3616574Y489390D01*
X3617352Y489501D01*
X3618018Y489575D01*
X3618537Y489612D01*
X3618759D01*
X3618982Y489649D01*
X3619315D01*
X3620352Y489612D01*
X3621352Y489501D01*
X3622314Y489353D01*
X3623277Y489094D01*
X3624203Y488797D01*
X3625129Y488464D01*
X3625981Y488094D01*
X3626833Y487649D01*
X3627684Y487205D01*
X3628499Y486687D01*
X3629980Y485612D01*
X3631388Y484464D01*
X3632684Y483279D01*
X3633832Y482057D01*
X3634832Y480909D01*
X3635684Y479835D01*
X3636091Y479354D01*
X3636424Y478872D01*
X3636720Y478428D01*
X3637017Y478058D01*
X3637239Y477724D01*
X3637424Y477428D01*
X3637572Y477206D01*
X3637683Y477021D01*
X3637720Y476910D01*
X3637757Y476873D01*
X3638461Y478058D01*
X3639165Y479169D01*
X3639905Y480206D01*
X3640609Y481169D01*
X3641387Y482094D01*
X3642127Y482909D01*
X3642905Y483687D01*
X3643646Y484427D01*
X3644423Y485057D01*
X3645164Y485687D01*
X3645942Y486242D01*
X3646682Y486724D01*
X3647423Y487168D01*
X3648127Y487575D01*
X3648830Y487946D01*
X3649534Y488279D01*
X3650201Y488575D01*
X3650830Y488834D01*
X3652052Y489205D01*
X3652570Y489390D01*
X3653089Y489501D01*
X3653571Y489612D01*
X3654015Y489723D01*
X3654422Y489760D01*
X3654792Y489834D01*
X3655089Y489871D01*
X3655348D01*
X3655570Y489908D01*
X3655829D01*
X3657274Y489834D01*
D02*
G37*
G36*
X3525176Y468207D02*
Y453246D01*
X3518214D01*
Y468318D01*
X3507585Y489871D01*
X3515215D01*
X3521732Y474984D01*
X3528250Y489871D01*
X3535842D01*
X3525176Y468207D01*
D02*
G37*
G36*
X3593503Y453246D02*
X3586541D01*
Y463467D01*
X3581726Y469503D01*
X3572653Y453246D01*
X3564580D01*
X3577245Y475132D01*
X3565543Y489871D01*
X3573838D01*
X3586541Y472725D01*
Y489871D01*
X3593503D01*
Y453246D01*
D02*
G37*
G36*
X3799407Y452875D02*
X3792445D01*
Y475688D01*
X3778965Y452875D01*
X3772003D01*
Y489464D01*
X3778965D01*
Y466503D01*
X3792445Y489464D01*
X3799407D01*
Y452875D01*
D02*
G37*
G36*
X3724304Y452875D02*
X3717342D01*
Y475688D01*
X3703862Y452875D01*
X3696936D01*
Y489464D01*
X3703862D01*
Y466503D01*
X3717342Y489464D01*
X3724304D01*
Y452875D01*
D02*
G37*
G36*
X3561136Y453246D02*
X3537879D01*
Y459282D01*
X3554211D01*
Y468651D01*
X3540286D01*
Y474688D01*
X3554211D01*
Y483798D01*
X3537879D01*
Y489871D01*
X3561136D01*
Y453246D01*
D02*
G37*
G36*
X3493809Y490353D02*
X3494291Y490316D01*
X3494846Y490242D01*
X3495439Y490131D01*
X3496105Y490019D01*
X3496809Y489871D01*
X3497550Y489686D01*
X3498290Y489427D01*
X3499068Y489131D01*
X3499809Y488797D01*
X3500512Y488390D01*
X3501216Y487946D01*
X3501883Y487427D01*
X3501920Y487390D01*
X3502031Y487279D01*
X3502179Y487094D01*
X3502401Y486872D01*
X3502660Y486575D01*
X3502919Y486205D01*
X3503253Y485761D01*
X3503549Y485279D01*
X3503845Y484724D01*
X3504142Y484094D01*
X3504438Y483428D01*
X3504697Y482724D01*
X3504919Y481946D01*
X3505067Y481132D01*
X3505179Y480280D01*
X3505215Y479354D01*
Y479317D01*
Y479243D01*
Y479132D01*
X3505179Y478984D01*
Y478798D01*
X3505141Y478539D01*
X3505067Y477984D01*
X3504919Y477280D01*
X3504697Y476539D01*
X3504401Y475688D01*
X3503956Y474836D01*
X3503438Y473947D01*
X3502808Y473058D01*
X3502401Y472614D01*
X3501994Y472206D01*
X3501512Y471799D01*
X3501031Y471392D01*
X3500475Y471021D01*
X3499883Y470651D01*
X3499253Y470318D01*
X3498549Y470022D01*
X3497809Y469762D01*
X3497031Y469503D01*
X3496180Y469318D01*
X3495291Y469133D01*
X3491847Y468540D01*
X3491809D01*
X3491736Y468503D01*
X3491587D01*
X3491439Y468466D01*
X3490995Y468318D01*
X3490439Y468170D01*
X3489847Y467948D01*
X3489254Y467651D01*
X3488662Y467318D01*
X3488180Y466948D01*
X3488143Y466911D01*
X3487995Y466763D01*
X3487810Y466503D01*
X3487588Y466133D01*
X3487365Y465689D01*
X3487180Y465096D01*
X3487032Y464430D01*
X3486995Y463652D01*
Y463615D01*
Y463430D01*
X3487032Y463207D01*
X3487069Y462911D01*
X3487180Y462541D01*
X3487291Y462133D01*
X3487477Y461689D01*
X3487736Y461245D01*
X3488032Y460800D01*
X3488440Y460356D01*
X3488884Y459949D01*
X3489476Y459578D01*
X3490143Y459282D01*
X3490921Y459060D01*
X3491809Y458875D01*
X3492846Y458838D01*
X3493143D01*
X3493365Y458875D01*
X3493624D01*
X3493920Y458912D01*
X3494587Y458986D01*
X3495365Y459134D01*
X3496142Y459356D01*
X3496883Y459689D01*
X3497550Y460097D01*
X3497624Y460171D01*
X3497809Y460356D01*
X3498068Y460652D01*
X3498364Y461096D01*
X3498698Y461689D01*
X3498846Y462022D01*
X3498994Y462430D01*
X3499142Y462837D01*
X3499253Y463318D01*
X3499364Y463800D01*
X3499438Y464356D01*
X3506030D01*
Y464281D01*
X3505993Y464096D01*
Y463837D01*
X3505919Y463430D01*
X3505845Y462985D01*
X3505734Y462430D01*
X3505623Y461837D01*
X3505438Y461208D01*
X3505215Y460541D01*
X3504993Y459837D01*
X3504660Y459134D01*
X3504327Y458430D01*
X3503919Y457763D01*
X3503438Y457097D01*
X3502919Y456467D01*
X3502327Y455875D01*
X3502290Y455838D01*
X3502179Y455764D01*
X3501994Y455616D01*
X3501734Y455430D01*
X3501401Y455208D01*
X3500994Y454949D01*
X3500549Y454690D01*
X3499994Y454431D01*
X3499401Y454134D01*
X3498698Y453875D01*
X3497957Y453616D01*
X3497105Y453394D01*
X3496216Y453209D01*
X3495254Y453060D01*
X3494254Y452986D01*
X3493143Y452949D01*
X3492883D01*
X3492550Y452986D01*
X3492143D01*
X3491624Y453023D01*
X3491032Y453097D01*
X3490402Y453209D01*
X3489698Y453320D01*
X3488958Y453468D01*
X3488180Y453653D01*
X3487403Y453912D01*
X3486588Y454171D01*
X3485810Y454505D01*
X3485069Y454912D01*
X3484329Y455356D01*
X3483662Y455875D01*
X3483625Y455912D01*
X3483514Y456023D01*
X3483329Y456171D01*
X3483107Y456393D01*
X3482847Y456690D01*
X3482551Y457060D01*
X3482218Y457504D01*
X3481884Y457986D01*
X3481551Y458541D01*
X3481218Y459171D01*
X3480922Y459837D01*
X3480663Y460615D01*
X3480440Y461430D01*
X3480255Y462319D01*
X3480144Y463282D01*
X3480107Y464281D01*
Y464318D01*
Y464393D01*
Y464504D01*
Y464652D01*
X3480144Y464837D01*
X3480181Y465096D01*
X3480255Y465652D01*
X3480403Y466318D01*
X3480588Y467059D01*
X3480885Y467911D01*
X3481292Y468762D01*
X3481811Y469651D01*
X3482403Y470540D01*
X3482773Y470947D01*
X3483181Y471392D01*
X3483625Y471799D01*
X3484107Y472206D01*
X3484625Y472577D01*
X3485180Y472947D01*
X3485810Y473280D01*
X3486440Y473614D01*
X3487180Y473873D01*
X3487921Y474132D01*
X3488736Y474354D01*
X3489587Y474540D01*
X3493439Y475280D01*
X3493476D01*
X3493550Y475317D01*
X3493698D01*
X3493883Y475354D01*
X3494069Y475428D01*
X3494328Y475465D01*
X3494920Y475651D01*
X3495550Y475873D01*
X3496180Y476132D01*
X3496772Y476465D01*
X3497290Y476836D01*
X3497327Y476873D01*
X3497476Y477058D01*
X3497661Y477280D01*
X3497883Y477650D01*
X3498142Y478058D01*
X3498327Y478576D01*
X3498476Y479206D01*
X3498513Y479872D01*
Y479909D01*
Y479983D01*
Y480095D01*
X3498476Y480243D01*
X3498438Y480613D01*
X3498327Y481095D01*
X3498179Y481650D01*
X3497920Y482206D01*
X3497587Y482761D01*
X3497142Y483279D01*
X3497068Y483316D01*
X3496883Y483465D01*
X3496550Y483687D01*
X3496105Y483909D01*
X3495513Y484131D01*
X3494809Y484353D01*
X3493994Y484501D01*
X3493032Y484539D01*
X3492624D01*
X3492402Y484501D01*
X3492143Y484464D01*
X3491550Y484390D01*
X3490921Y484242D01*
X3490254Y484020D01*
X3489587Y483724D01*
X3488995Y483316D01*
X3488921Y483242D01*
X3488773Y483057D01*
X3488551Y482761D01*
X3488254Y482354D01*
X3487995Y481798D01*
X3487736Y481132D01*
X3487551Y480354D01*
X3487440Y479428D01*
X3480736D01*
Y479502D01*
X3480774Y479650D01*
X3480811Y479946D01*
X3480847Y480280D01*
X3480959Y480724D01*
X3481070Y481243D01*
X3481181Y481798D01*
X3481366Y482391D01*
X3481588Y483020D01*
X3481811Y483687D01*
X3482107Y484353D01*
X3482440Y485020D01*
X3482847Y485687D01*
X3483292Y486353D01*
X3483773Y486946D01*
X3484329Y487501D01*
X3484366Y487538D01*
X3484477Y487612D01*
X3484662Y487760D01*
X3484921Y487946D01*
X3485255Y488168D01*
X3485625Y488427D01*
X3486106Y488686D01*
X3486625Y488946D01*
X3487217Y489205D01*
X3487847Y489464D01*
X3488551Y489723D01*
X3489328Y489945D01*
X3490143Y490131D01*
X3490995Y490279D01*
X3491920Y490353D01*
X3492883Y490390D01*
X3493439D01*
X3493809Y490353D01*
D02*
G37*
G36*
X3812998Y452875D02*
X3806036D01*
Y489464D01*
X3812998D01*
Y452875D01*
D02*
G37*
G36*
X3765707D02*
X3758745D01*
Y467948D01*
X3744783D01*
Y474021D01*
X3758745D01*
Y483428D01*
X3742450D01*
Y489464D01*
X3765707D01*
Y452875D01*
D02*
G37*
G36*
X3737932Y452875D02*
X3730970D01*
Y489464D01*
X3737932D01*
Y452875D01*
D02*
G37*
G36*
X3690307D02*
X3683345D01*
Y489464D01*
X3690307D01*
Y452875D01*
D02*
G37*
%LPC*%
G36*
X3655681Y482576D02*
X3655496D01*
X3654681Y482539D01*
X3653941Y482465D01*
X3653200Y482317D01*
X3652497Y482131D01*
X3651830Y481946D01*
X3651200Y481687D01*
X3650645Y481465D01*
X3650126Y481206D01*
X3649645Y480946D01*
X3649201Y480687D01*
X3648830Y480428D01*
X3648534Y480243D01*
X3648312Y480058D01*
X3648127Y479909D01*
X3648015Y479835D01*
X3647979Y479798D01*
X3647349Y479243D01*
X3646756Y478650D01*
X3646164Y477984D01*
X3645609Y477280D01*
X3644534Y475873D01*
X3644053Y475169D01*
X3643609Y474465D01*
X3643164Y473799D01*
X3642794Y473206D01*
X3642461Y472651D01*
X3642201Y472169D01*
X3641979Y471762D01*
X3641831Y471466D01*
X3641720Y471281D01*
X3641683Y471207D01*
X3642275Y470133D01*
X3642905Y469133D01*
X3643498Y468207D01*
X3644090Y467355D01*
X3644645Y466577D01*
X3645164Y465874D01*
X3645682Y465207D01*
X3646164Y464652D01*
X3646608Y464170D01*
X3646978Y463726D01*
X3647349Y463356D01*
X3647645Y463059D01*
X3647867Y462837D01*
X3648052Y462689D01*
X3648163Y462578D01*
X3648201Y462541D01*
X3648793Y462059D01*
X3649423Y461652D01*
X3650052Y461319D01*
X3650682Y460985D01*
X3651274Y460726D01*
X3651867Y460541D01*
X3652459Y460356D01*
X3652978Y460208D01*
X3653496Y460097D01*
X3653941Y460023D01*
X3654348Y459949D01*
X3654681Y459911D01*
X3654978D01*
X3655163Y459874D01*
X3655348D01*
X3656237Y459911D01*
X3657052Y460023D01*
X3657866Y460171D01*
X3658570Y460356D01*
X3659274Y460615D01*
X3659903Y460874D01*
X3660496Y461171D01*
X3661014Y461467D01*
X3661496Y461726D01*
X3661903Y462022D01*
X3662273Y462282D01*
X3662570Y462541D01*
X3662792Y462726D01*
X3662940Y462874D01*
X3663051Y462985D01*
X3663088Y463022D01*
X3663607Y463615D01*
X3664051Y464281D01*
X3664421Y464948D01*
X3664755Y465615D01*
X3665051Y466281D01*
X3665273Y466948D01*
X3665458Y467614D01*
X3665606Y468244D01*
X3665717Y468837D01*
X3665829Y469355D01*
X3665902Y469873D01*
X3665940Y470281D01*
Y470614D01*
X3665977Y470873D01*
Y471059D01*
Y471096D01*
X3665940Y472058D01*
X3665865Y472947D01*
X3665717Y473799D01*
X3665495Y474614D01*
X3665273Y475354D01*
X3665051Y476021D01*
X3664755Y476651D01*
X3664495Y477206D01*
X3664236Y477724D01*
X3663940Y478169D01*
X3663718Y478539D01*
X3663458Y478872D01*
X3663273Y479095D01*
X3663125Y479280D01*
X3663051Y479391D01*
X3663014Y479428D01*
X3662421Y479983D01*
X3661829Y480465D01*
X3661199Y480872D01*
X3660570Y481243D01*
X3659940Y481539D01*
X3659311Y481798D01*
X3658718Y482020D01*
X3658126Y482169D01*
X3657570Y482317D01*
X3657089Y482428D01*
X3656644Y482465D01*
X3656237Y482539D01*
X3655941D01*
X3655681Y482576D01*
D02*
G37*
G36*
X3620426Y482354D02*
X3620056D01*
X3619204Y482317D01*
X3618426Y482206D01*
X3617648Y482057D01*
X3616945Y481872D01*
X3616241Y481613D01*
X3615648Y481354D01*
X3615056Y481058D01*
X3614537Y480798D01*
X3614056Y480502D01*
X3613649Y480206D01*
X3613315Y479947D01*
X3613019Y479687D01*
X3612760Y479502D01*
X3612612Y479354D01*
X3612501Y479243D01*
X3612464Y479206D01*
X3611945Y478613D01*
X3611464Y477947D01*
X3611057Y477280D01*
X3610723Y476614D01*
X3610427Y475910D01*
X3610168Y475243D01*
X3609982Y474577D01*
X3609797Y473947D01*
X3609686Y473317D01*
X3609575Y472799D01*
X3609501Y472281D01*
X3609464Y471873D01*
Y471503D01*
X3609427Y471244D01*
Y471096D01*
Y471021D01*
X3609464Y470096D01*
X3609538Y469207D01*
X3609686Y468392D01*
X3609908Y467614D01*
X3610131Y466874D01*
X3610390Y466207D01*
X3610649Y465578D01*
X3610908Y465022D01*
X3611205Y464504D01*
X3611464Y464059D01*
X3611723Y463689D01*
X3611945Y463393D01*
X3612130Y463133D01*
X3612278Y462948D01*
X3612390Y462837D01*
X3612426Y462800D01*
X3613019Y462245D01*
X3613612Y461763D01*
X3614241Y461319D01*
X3614871Y460948D01*
X3615500Y460652D01*
X3616130Y460393D01*
X3616722Y460171D01*
X3617315Y460023D01*
X3617870Y459874D01*
X3618352Y459800D01*
X3618796Y459726D01*
X3619204Y459652D01*
X3619500D01*
X3619759Y459615D01*
X3619944D01*
X3620722Y459652D01*
X3621463Y459726D01*
X3622203Y459874D01*
X3622907Y460060D01*
X3623574Y460245D01*
X3624166Y460504D01*
X3624759Y460763D01*
X3625277Y461022D01*
X3625759Y461282D01*
X3626203Y461504D01*
X3626573Y461763D01*
X3626870Y461948D01*
X3627129Y462133D01*
X3627314Y462282D01*
X3627425Y462356D01*
X3627462Y462393D01*
X3628055Y462948D01*
X3628684Y463578D01*
X3629240Y464244D01*
X3629832Y464911D01*
X3630869Y466355D01*
X3631388Y467059D01*
X3631832Y467762D01*
X3632239Y468392D01*
X3632610Y469022D01*
X3632943Y469577D01*
X3633239Y470022D01*
X3633462Y470429D01*
X3633610Y470725D01*
X3633721Y470910D01*
X3633758Y470984D01*
X3633128Y472058D01*
X3632536Y473058D01*
X3631943Y473984D01*
X3631351Y474836D01*
X3630795Y475614D01*
X3630276Y476317D01*
X3629758Y476947D01*
X3629277Y477502D01*
X3628832Y478021D01*
X3628425Y478428D01*
X3628092Y478798D01*
X3627795Y479095D01*
X3627573Y479317D01*
X3627388Y479502D01*
X3627277Y479576D01*
X3627240Y479613D01*
X3626610Y480095D01*
X3625981Y480502D01*
X3625351Y480872D01*
X3624759Y481206D01*
X3624129Y481465D01*
X3623537Y481687D01*
X3622981Y481872D01*
X3622426Y482020D01*
X3621907Y482131D01*
X3621463Y482206D01*
X3621055Y482280D01*
X3620722Y482317D01*
X3620426Y482354D01*
D02*
G37*
%LPD*%
D11*
X4404500Y1226000D02*
D03*
X4413500D02*
D03*
X30500Y733500D02*
D03*
X39500D02*
D03*
X30500Y352500D02*
D03*
X39500D02*
D03*
X30500Y924000D02*
D03*
X39500D02*
D03*
X30500Y1114500D02*
D03*
X39500D02*
D03*
X30500Y543000D02*
D03*
X39500D02*
D03*
X30500Y1305000D02*
D03*
X39500D02*
D03*
X30500Y162000D02*
D03*
X39500D02*
D03*
X4385500Y1288000D02*
D03*
X4394500D02*
D03*
D12*
X4411400Y1312000D02*
D03*
X4660000Y1081400D02*
D03*
D13*
X4386000Y1312000D02*
D03*
X4360600D02*
D03*
X4660000Y1106800D02*
D03*
X4634600Y1081400D02*
D03*
Y1106800D02*
D03*
X4609200Y1081400D02*
D03*
Y1106800D02*
D03*
X4583800Y1081400D02*
D03*
Y1106800D02*
D03*
X4558400Y1081400D02*
D03*
Y1106800D02*
D03*
X4533000Y1081400D02*
D03*
Y1106800D02*
D03*
X4507600Y1081400D02*
D03*
Y1106800D02*
D03*
X4482200Y1081400D02*
D03*
Y1106800D02*
D03*
X4456800Y1081400D02*
D03*
Y1106800D02*
D03*
X4431400Y1081400D02*
D03*
Y1106800D02*
D03*
D14*
X4543250Y1338600D02*
D03*
X4456750D02*
D03*
D15*
X4543250Y1304800D02*
D03*
X4456750D02*
D03*
D16*
X4529750Y1295000D02*
D03*
X4521250D02*
D03*
X4478750Y1308500D02*
D03*
X4487250D02*
D03*
X4495750D02*
D03*
X4504250D02*
D03*
X4512750D02*
D03*
X4521250D02*
D03*
X4529750D02*
D03*
X4470250D02*
D03*
X4512750Y1295000D02*
D03*
X4504250D02*
D03*
X4495750D02*
D03*
X4487250D02*
D03*
X4478750D02*
D03*
X4470250D02*
D03*
D17*
X3912500Y1236000D02*
D03*
Y994000D02*
D03*
X4335000Y1240000D02*
D03*
Y990000D02*
D03*
X4397875Y865500D02*
D03*
X4448675D02*
D03*
X4347075D02*
D03*
X4207375D02*
D03*
X4258175D02*
D03*
X4156575D02*
D03*
X4016875D02*
D03*
X4067675D02*
D03*
X3966075D02*
D03*
X3540625Y1246500D02*
D03*
X3591425D02*
D03*
X3489825D02*
D03*
X3350125D02*
D03*
X3400925D02*
D03*
X3299325D02*
D03*
X4397875Y675000D02*
D03*
X4448675D02*
D03*
X4347075D02*
D03*
X4207375D02*
D03*
X4258175D02*
D03*
X4156575D02*
D03*
X4016875D02*
D03*
X4067675D02*
D03*
X3966075D02*
D03*
X3540625Y1056000D02*
D03*
X3591425D02*
D03*
X3489825D02*
D03*
X3350125D02*
D03*
X3400925D02*
D03*
X3299325D02*
D03*
X4397875Y484500D02*
D03*
X4448675D02*
D03*
X4347075D02*
D03*
X4207375D02*
D03*
X4258175D02*
D03*
X4156575D02*
D03*
X4016875D02*
D03*
X4067675D02*
D03*
X3966075D02*
D03*
X3731125Y1246500D02*
D03*
X3781925D02*
D03*
X3680325D02*
D03*
X3350125Y865500D02*
D03*
X3400925D02*
D03*
X3299325D02*
D03*
X4397875Y294000D02*
D03*
X4448675D02*
D03*
X4347075D02*
D03*
X4207375D02*
D03*
X4258175D02*
D03*
X4156575D02*
D03*
X4016875D02*
D03*
X4067675D02*
D03*
X3966075D02*
D03*
X3731125Y103500D02*
D03*
X3781925D02*
D03*
X3680325D02*
D03*
X3731125Y1056000D02*
D03*
X3781925D02*
D03*
X3680325D02*
D03*
X3350125Y675000D02*
D03*
X3400925D02*
D03*
X3299325D02*
D03*
X4588375Y865500D02*
D03*
X4639175D02*
D03*
X4537575D02*
D03*
X4112125Y103500D02*
D03*
X4162925D02*
D03*
X4061325D02*
D03*
X3540625Y294000D02*
D03*
X3591425D02*
D03*
X3489825D02*
D03*
X3731125Y865500D02*
D03*
X3781925D02*
D03*
X3680325D02*
D03*
X3540625D02*
D03*
X3591425D02*
D03*
X3489825D02*
D03*
X4588375Y579750D02*
D03*
X4639175D02*
D03*
X4537575D02*
D03*
X4397875Y103500D02*
D03*
X4448675D02*
D03*
X4347075D02*
D03*
X3540625D02*
D03*
X3591425D02*
D03*
X3489825D02*
D03*
X3731125Y675000D02*
D03*
X3781925D02*
D03*
X3680325D02*
D03*
X3540625D02*
D03*
X3591425D02*
D03*
X3489825D02*
D03*
X4588375Y198750D02*
D03*
X4639175D02*
D03*
X4537575D02*
D03*
X3350125Y103500D02*
D03*
X3400925D02*
D03*
X3299325D02*
D03*
X3064375Y1246500D02*
D03*
X3115175D02*
D03*
X3013575D02*
D03*
X2873875D02*
D03*
X2924675D02*
D03*
X2823075D02*
D03*
X2683375D02*
D03*
X2734175D02*
D03*
X2632575D02*
D03*
X2492875D02*
D03*
X2543675D02*
D03*
X2442075D02*
D03*
X2302375D02*
D03*
X2353175D02*
D03*
X2251575D02*
D03*
X2111875D02*
D03*
X2162675D02*
D03*
X2061075D02*
D03*
X1921375D02*
D03*
X1972175D02*
D03*
X1870575D02*
D03*
X1730875D02*
D03*
X1781675D02*
D03*
X1680075D02*
D03*
X1540375D02*
D03*
X1591175D02*
D03*
X1489575D02*
D03*
X1349875D02*
D03*
X1400675D02*
D03*
X1299075D02*
D03*
X1159375D02*
D03*
X1210175D02*
D03*
X1108575D02*
D03*
X968875D02*
D03*
X1019675D02*
D03*
X918075D02*
D03*
X778375D02*
D03*
X829175D02*
D03*
X727575D02*
D03*
X587875D02*
D03*
X638675D02*
D03*
X537075D02*
D03*
X397375D02*
D03*
X448175D02*
D03*
X346575D02*
D03*
X111625D02*
D03*
X162425D02*
D03*
X60825D02*
D03*
X3064375Y1056000D02*
D03*
X3115175D02*
D03*
X3013575D02*
D03*
X2873875D02*
D03*
X2924675D02*
D03*
X2823075D02*
D03*
X2683375D02*
D03*
X2734175D02*
D03*
X2632575D02*
D03*
X2492875D02*
D03*
X2543675D02*
D03*
X2442075D02*
D03*
X2302375D02*
D03*
X2353175D02*
D03*
X2251575D02*
D03*
X2111875D02*
D03*
X2162675D02*
D03*
X2061075D02*
D03*
X1921375D02*
D03*
X1972175D02*
D03*
X1870575D02*
D03*
X1730875D02*
D03*
X1781675D02*
D03*
X1680075D02*
D03*
X1540375D02*
D03*
X1591175D02*
D03*
X1489575D02*
D03*
X1349875D02*
D03*
X1400675D02*
D03*
X1299075D02*
D03*
X1159375D02*
D03*
X1210175D02*
D03*
X1108575D02*
D03*
X968875D02*
D03*
X1019675D02*
D03*
X918075D02*
D03*
X778375D02*
D03*
X829175D02*
D03*
X727575D02*
D03*
X587875D02*
D03*
X638675D02*
D03*
X537075D02*
D03*
X397375D02*
D03*
X448175D02*
D03*
X346575D02*
D03*
X111625D02*
D03*
X162425D02*
D03*
X60825D02*
D03*
X2969125Y865500D02*
D03*
X3019925D02*
D03*
X2918325D02*
D03*
X2683375D02*
D03*
X2734175D02*
D03*
X2632575D02*
D03*
X2492875D02*
D03*
X2543675D02*
D03*
X2442075D02*
D03*
X2302375D02*
D03*
X2353175D02*
D03*
X2251575D02*
D03*
X2111875D02*
D03*
X2162675D02*
D03*
X2061075D02*
D03*
X1921375D02*
D03*
X1972175D02*
D03*
X1870575D02*
D03*
X1730875D02*
D03*
X1781675D02*
D03*
X1680075D02*
D03*
X1540375D02*
D03*
X1591175D02*
D03*
X1489575D02*
D03*
X1349875D02*
D03*
X1400675D02*
D03*
X1299075D02*
D03*
X1159375D02*
D03*
X1210175D02*
D03*
X1108575D02*
D03*
X968875D02*
D03*
X1019675D02*
D03*
X918075D02*
D03*
X778375D02*
D03*
X829175D02*
D03*
X727575D02*
D03*
X587875D02*
D03*
X638675D02*
D03*
X537075D02*
D03*
X397375D02*
D03*
X448175D02*
D03*
X346575D02*
D03*
X111625D02*
D03*
X162425D02*
D03*
X60825D02*
D03*
X3040565Y579750D02*
D03*
X3091365D02*
D03*
X2989765D02*
D03*
X2778625Y675000D02*
D03*
X2829425D02*
D03*
X2727825D02*
D03*
X2588125D02*
D03*
X2638925D02*
D03*
X2537325D02*
D03*
X2397625D02*
D03*
X2448425D02*
D03*
X2346825D02*
D03*
X2207125D02*
D03*
X2257925D02*
D03*
X2156325D02*
D03*
X2016625D02*
D03*
X2067425D02*
D03*
X1965825D02*
D03*
X1826125D02*
D03*
X1876925D02*
D03*
X1775325D02*
D03*
X1635625D02*
D03*
X1686425D02*
D03*
X1584825D02*
D03*
X1445125D02*
D03*
X1495925D02*
D03*
X1394325D02*
D03*
X1254625D02*
D03*
X1305425D02*
D03*
X1203825D02*
D03*
X1064125D02*
D03*
X1114925D02*
D03*
X1013325D02*
D03*
X873625D02*
D03*
X924425D02*
D03*
X822825D02*
D03*
X683125D02*
D03*
X733925D02*
D03*
X632325D02*
D03*
X445000D02*
D03*
X495800D02*
D03*
X394200D02*
D03*
X111625D02*
D03*
X162425D02*
D03*
X60825D02*
D03*
X2826255Y484500D02*
D03*
X2877055D02*
D03*
X2775455D02*
D03*
X2635755D02*
D03*
X2686555D02*
D03*
X2584955D02*
D03*
X2445255D02*
D03*
X2496055D02*
D03*
X2394455D02*
D03*
X2254755D02*
D03*
X2305555D02*
D03*
X2203955D02*
D03*
X2064255D02*
D03*
X2115055D02*
D03*
X2013455D02*
D03*
X1873755D02*
D03*
X1924555D02*
D03*
X1822955D02*
D03*
X1683255D02*
D03*
X1734055D02*
D03*
X1632455D02*
D03*
X1492755D02*
D03*
X1543555D02*
D03*
X1441955D02*
D03*
X1302255D02*
D03*
X1353055D02*
D03*
X1251455D02*
D03*
X1111755D02*
D03*
X1162555D02*
D03*
X1060955D02*
D03*
X921255D02*
D03*
X972055D02*
D03*
X870455D02*
D03*
X730755D02*
D03*
X781555D02*
D03*
X679955D02*
D03*
X468813D02*
D03*
X519613D02*
D03*
X418013D02*
D03*
X111625D02*
D03*
X162425D02*
D03*
X60825D02*
D03*
X2897685Y294000D02*
D03*
X2948485D02*
D03*
X2846885D02*
D03*
X2540505D02*
D03*
X2591305D02*
D03*
X2489705D02*
D03*
X2350005D02*
D03*
X2400805D02*
D03*
X2299205D02*
D03*
X2159505D02*
D03*
X2210305D02*
D03*
X2108705D02*
D03*
X1969005D02*
D03*
X2019805D02*
D03*
X1918205D02*
D03*
X1778505D02*
D03*
X1829305D02*
D03*
X1727705D02*
D03*
X1588005D02*
D03*
X1638805D02*
D03*
X1537205D02*
D03*
X1397505D02*
D03*
X1448305D02*
D03*
X1346705D02*
D03*
X1207005D02*
D03*
X1257805D02*
D03*
X1156205D02*
D03*
X1016505D02*
D03*
X1067305D02*
D03*
X965705D02*
D03*
X826005D02*
D03*
X876805D02*
D03*
X775205D02*
D03*
X635505D02*
D03*
X686305D02*
D03*
X584705D02*
D03*
X421188D02*
D03*
X471988D02*
D03*
X370388D02*
D03*
X111625D02*
D03*
X162425D02*
D03*
X60825D02*
D03*
X3040565Y103500D02*
D03*
X3091365D02*
D03*
X2989765D02*
D03*
X2802435D02*
D03*
X2853235D02*
D03*
X2751635D02*
D03*
X2564315D02*
D03*
X2615115D02*
D03*
X2513515D02*
D03*
X2326185D02*
D03*
X2376985D02*
D03*
X2275385D02*
D03*
X1611815D02*
D03*
X1662615D02*
D03*
X1561015D02*
D03*
X897435D02*
D03*
X948235D02*
D03*
X846635D02*
D03*
X659315D02*
D03*
X710115D02*
D03*
X608515D02*
D03*
X421188D02*
D03*
X471988D02*
D03*
X370388D02*
D03*
X111625D02*
D03*
X162425D02*
D03*
X60825D02*
D03*
D18*
X4435975Y814700D02*
D03*
X4410575D02*
D03*
X4385175D02*
D03*
X4359775D02*
D03*
X4245475D02*
D03*
X4220075D02*
D03*
X4194675D02*
D03*
X4169275D02*
D03*
X4054975D02*
D03*
X4029575D02*
D03*
X4004175D02*
D03*
X3978775D02*
D03*
X3578725Y1195700D02*
D03*
X3553325D02*
D03*
X3527925D02*
D03*
X3502525D02*
D03*
X3388225D02*
D03*
X3362825D02*
D03*
X3337425D02*
D03*
X3312025D02*
D03*
X4435975Y624200D02*
D03*
X4410575D02*
D03*
X4385175D02*
D03*
X4359775D02*
D03*
X4245475D02*
D03*
X4220075D02*
D03*
X4194675D02*
D03*
X4169275D02*
D03*
X4054975D02*
D03*
X4029575D02*
D03*
X4004175D02*
D03*
X3978775D02*
D03*
X3578725Y1005200D02*
D03*
X3553325D02*
D03*
X3527925D02*
D03*
X3502525D02*
D03*
X3388225D02*
D03*
X3362825D02*
D03*
X3337425D02*
D03*
X3312025D02*
D03*
X4435975Y433700D02*
D03*
X4410575D02*
D03*
X4385175D02*
D03*
X4359775D02*
D03*
X4245475D02*
D03*
X4220075D02*
D03*
X4194675D02*
D03*
X4169275D02*
D03*
X4054975D02*
D03*
X4029575D02*
D03*
X4004175D02*
D03*
X3978775D02*
D03*
X3769225Y1195700D02*
D03*
X3743825D02*
D03*
X3718425D02*
D03*
X3693025D02*
D03*
X3388225Y814700D02*
D03*
X3362825D02*
D03*
X3337425D02*
D03*
X3312025D02*
D03*
X4435975Y243200D02*
D03*
X4410575D02*
D03*
X4385175D02*
D03*
X4359775D02*
D03*
X4245475D02*
D03*
X4220075D02*
D03*
X4194675D02*
D03*
X4169275D02*
D03*
X4054975D02*
D03*
X4029575D02*
D03*
X4004175D02*
D03*
X3978775D02*
D03*
X3769225Y52700D02*
D03*
X3743825D02*
D03*
X3718425D02*
D03*
X3693025D02*
D03*
X3769225Y1005200D02*
D03*
X3743825D02*
D03*
X3718425D02*
D03*
X3693025D02*
D03*
X3388225Y624200D02*
D03*
X3362825D02*
D03*
X3337425D02*
D03*
X3312025D02*
D03*
X4626475Y814700D02*
D03*
X4601075D02*
D03*
X4575675D02*
D03*
X4550275D02*
D03*
X4150225Y52700D02*
D03*
X4124825D02*
D03*
X4099425D02*
D03*
X4074025D02*
D03*
X3578725Y243200D02*
D03*
X3553325D02*
D03*
X3527925D02*
D03*
X3502525D02*
D03*
X3769225Y814700D02*
D03*
X3743825D02*
D03*
X3718425D02*
D03*
X3693025D02*
D03*
X3578725D02*
D03*
X3553325D02*
D03*
X3527925D02*
D03*
X3502525D02*
D03*
X4626475Y528950D02*
D03*
X4601075D02*
D03*
X4575675D02*
D03*
X4550275D02*
D03*
X4435975Y52700D02*
D03*
X4410575D02*
D03*
X4385175D02*
D03*
X4359775D02*
D03*
X3578725D02*
D03*
X3553325D02*
D03*
X3527925D02*
D03*
X3502525D02*
D03*
X3769225Y624200D02*
D03*
X3743825D02*
D03*
X3718425D02*
D03*
X3693025D02*
D03*
X3578725D02*
D03*
X3553325D02*
D03*
X3527925D02*
D03*
X3502525D02*
D03*
X4626475Y147950D02*
D03*
X4601075D02*
D03*
X4575675D02*
D03*
X4550275D02*
D03*
X3388225Y52700D02*
D03*
X3362825D02*
D03*
X3337425D02*
D03*
X3312025D02*
D03*
X3102475Y1195700D02*
D03*
X3077075D02*
D03*
X3051675D02*
D03*
X3026275D02*
D03*
X2911975D02*
D03*
X2886575D02*
D03*
X2861175D02*
D03*
X2835775D02*
D03*
X2721475D02*
D03*
X2696075D02*
D03*
X2670675D02*
D03*
X2645275D02*
D03*
X2530975D02*
D03*
X2505575D02*
D03*
X2480175D02*
D03*
X2454775D02*
D03*
X2340475D02*
D03*
X2315075D02*
D03*
X2289675D02*
D03*
X2264275D02*
D03*
X2149975D02*
D03*
X2124575D02*
D03*
X2099175D02*
D03*
X2073775D02*
D03*
X1959475D02*
D03*
X1934075D02*
D03*
X1908675D02*
D03*
X1883275D02*
D03*
X1768975D02*
D03*
X1743575D02*
D03*
X1718175D02*
D03*
X1692775D02*
D03*
X1578475D02*
D03*
X1553075D02*
D03*
X1527675D02*
D03*
X1502275D02*
D03*
X1387975D02*
D03*
X1362575D02*
D03*
X1337175D02*
D03*
X1311775D02*
D03*
X1197475D02*
D03*
X1172075D02*
D03*
X1146675D02*
D03*
X1121275D02*
D03*
X1006975D02*
D03*
X981575D02*
D03*
X956175D02*
D03*
X930775D02*
D03*
X816475D02*
D03*
X791075D02*
D03*
X765675D02*
D03*
X740275D02*
D03*
X625975D02*
D03*
X600575D02*
D03*
X575175D02*
D03*
X549775D02*
D03*
X435475D02*
D03*
X410075D02*
D03*
X384675D02*
D03*
X359275D02*
D03*
X149725D02*
D03*
X124325D02*
D03*
X98925D02*
D03*
X73525D02*
D03*
X3102475Y1005200D02*
D03*
X3077075D02*
D03*
X3051675D02*
D03*
X3026275D02*
D03*
X2911975D02*
D03*
X2886575D02*
D03*
X2861175D02*
D03*
X2835775D02*
D03*
X2721475D02*
D03*
X2696075D02*
D03*
X2670675D02*
D03*
X2645275D02*
D03*
X2530975D02*
D03*
X2505575D02*
D03*
X2480175D02*
D03*
X2454775D02*
D03*
X2340475D02*
D03*
X2315075D02*
D03*
X2289675D02*
D03*
X2264275D02*
D03*
X2149975D02*
D03*
X2124575D02*
D03*
X2099175D02*
D03*
X2073775D02*
D03*
X1959475D02*
D03*
X1934075D02*
D03*
X1908675D02*
D03*
X1883275D02*
D03*
X1768975D02*
D03*
X1743575D02*
D03*
X1718175D02*
D03*
X1692775D02*
D03*
X1578475D02*
D03*
X1553075D02*
D03*
X1527675D02*
D03*
X1502275D02*
D03*
X1387975D02*
D03*
X1362575D02*
D03*
X1337175D02*
D03*
X1311775D02*
D03*
X1197475D02*
D03*
X1172075D02*
D03*
X1146675D02*
D03*
X1121275D02*
D03*
X1006975D02*
D03*
X981575D02*
D03*
X956175D02*
D03*
X930775D02*
D03*
X816475D02*
D03*
X791075D02*
D03*
X765675D02*
D03*
X740275D02*
D03*
X625975D02*
D03*
X600575D02*
D03*
X575175D02*
D03*
X549775D02*
D03*
X435475D02*
D03*
X410075D02*
D03*
X384675D02*
D03*
X359275D02*
D03*
X149725D02*
D03*
X124325D02*
D03*
X98925D02*
D03*
X73525D02*
D03*
X3007225Y814700D02*
D03*
X2981825D02*
D03*
X2956425D02*
D03*
X2931025D02*
D03*
X2721475D02*
D03*
X2696075D02*
D03*
X2670675D02*
D03*
X2645275D02*
D03*
X2530975D02*
D03*
X2505575D02*
D03*
X2480175D02*
D03*
X2454775D02*
D03*
X2340475D02*
D03*
X2315075D02*
D03*
X2289675D02*
D03*
X2264275D02*
D03*
X2149975D02*
D03*
X2124575D02*
D03*
X2099175D02*
D03*
X2073775D02*
D03*
X1959475D02*
D03*
X1934075D02*
D03*
X1908675D02*
D03*
X1883275D02*
D03*
X1768975D02*
D03*
X1743575D02*
D03*
X1718175D02*
D03*
X1692775D02*
D03*
X1578475D02*
D03*
X1553075D02*
D03*
X1527675D02*
D03*
X1502275D02*
D03*
X1387975D02*
D03*
X1362575D02*
D03*
X1337175D02*
D03*
X1311775D02*
D03*
X1197475D02*
D03*
X1172075D02*
D03*
X1146675D02*
D03*
X1121275D02*
D03*
X1006975D02*
D03*
X981575D02*
D03*
X956175D02*
D03*
X930775D02*
D03*
X816475D02*
D03*
X791075D02*
D03*
X765675D02*
D03*
X740275D02*
D03*
X625975D02*
D03*
X600575D02*
D03*
X575175D02*
D03*
X549775D02*
D03*
X435475D02*
D03*
X410075D02*
D03*
X384675D02*
D03*
X359275D02*
D03*
X149725D02*
D03*
X124325D02*
D03*
X98925D02*
D03*
X73525D02*
D03*
X3078665Y528950D02*
D03*
X3053265D02*
D03*
X3027865D02*
D03*
X3002465D02*
D03*
X2816725Y624200D02*
D03*
X2791325D02*
D03*
X2765925D02*
D03*
X2740525D02*
D03*
X2626225D02*
D03*
X2600825D02*
D03*
X2575425D02*
D03*
X2550025D02*
D03*
X2435725D02*
D03*
X2410325D02*
D03*
X2384925D02*
D03*
X2359525D02*
D03*
X2245225D02*
D03*
X2219825D02*
D03*
X2194425D02*
D03*
X2169025D02*
D03*
X2054725D02*
D03*
X2029325D02*
D03*
X2003925D02*
D03*
X1978525D02*
D03*
X1864225D02*
D03*
X1838825D02*
D03*
X1813425D02*
D03*
X1788025D02*
D03*
X1673725D02*
D03*
X1648325D02*
D03*
X1622925D02*
D03*
X1597525D02*
D03*
X1483225D02*
D03*
X1457825D02*
D03*
X1432425D02*
D03*
X1407025D02*
D03*
X1292725D02*
D03*
X1267325D02*
D03*
X1241925D02*
D03*
X1216525D02*
D03*
X1102225D02*
D03*
X1076825D02*
D03*
X1051425D02*
D03*
X1026025D02*
D03*
X911725D02*
D03*
X886325D02*
D03*
X860925D02*
D03*
X835525D02*
D03*
X721225D02*
D03*
X695825D02*
D03*
X670425D02*
D03*
X645025D02*
D03*
X483100D02*
D03*
X457700D02*
D03*
X432300D02*
D03*
X406900D02*
D03*
X149725D02*
D03*
X124325D02*
D03*
X98925D02*
D03*
X73525D02*
D03*
X2864355Y433700D02*
D03*
X2838955D02*
D03*
X2813555D02*
D03*
X2788155D02*
D03*
X2673855D02*
D03*
X2648455D02*
D03*
X2623055D02*
D03*
X2597655D02*
D03*
X2483355D02*
D03*
X2457955D02*
D03*
X2432555D02*
D03*
X2407155D02*
D03*
X2292855D02*
D03*
X2267455D02*
D03*
X2242055D02*
D03*
X2216655D02*
D03*
X2102355D02*
D03*
X2076955D02*
D03*
X2051555D02*
D03*
X2026155D02*
D03*
X1911855D02*
D03*
X1886455D02*
D03*
X1861055D02*
D03*
X1835655D02*
D03*
X1721355D02*
D03*
X1695955D02*
D03*
X1670555D02*
D03*
X1645155D02*
D03*
X1530855D02*
D03*
X1505455D02*
D03*
X1480055D02*
D03*
X1454655D02*
D03*
X1340355D02*
D03*
X1314955D02*
D03*
X1289555D02*
D03*
X1264155D02*
D03*
X1149855D02*
D03*
X1124455D02*
D03*
X1099055D02*
D03*
X1073655D02*
D03*
X959355D02*
D03*
X933955D02*
D03*
X908555D02*
D03*
X883155D02*
D03*
X768855D02*
D03*
X743455D02*
D03*
X718055D02*
D03*
X692655D02*
D03*
X506913D02*
D03*
X481513D02*
D03*
X456113D02*
D03*
X430713D02*
D03*
X149725D02*
D03*
X124325D02*
D03*
X98925D02*
D03*
X73525D02*
D03*
X2935785Y243200D02*
D03*
X2910385D02*
D03*
X2884985D02*
D03*
X2859585D02*
D03*
X2578605D02*
D03*
X2553205D02*
D03*
X2527805D02*
D03*
X2502405D02*
D03*
X2388105D02*
D03*
X2362705D02*
D03*
X2337305D02*
D03*
X2311905D02*
D03*
X2197605D02*
D03*
X2172205D02*
D03*
X2146805D02*
D03*
X2121405D02*
D03*
X2007105D02*
D03*
X1981705D02*
D03*
X1956305D02*
D03*
X1930905D02*
D03*
X1816605D02*
D03*
X1791205D02*
D03*
X1765805D02*
D03*
X1740405D02*
D03*
X1626105D02*
D03*
X1600705D02*
D03*
X1575305D02*
D03*
X1549905D02*
D03*
X1435605D02*
D03*
X1410205D02*
D03*
X1384805D02*
D03*
X1359405D02*
D03*
X1245105D02*
D03*
X1219705D02*
D03*
X1194305D02*
D03*
X1168905D02*
D03*
X1054605D02*
D03*
X1029205D02*
D03*
X1003805D02*
D03*
X978405D02*
D03*
X864105D02*
D03*
X838705D02*
D03*
X813305D02*
D03*
X787905D02*
D03*
X673605D02*
D03*
X648205D02*
D03*
X622805D02*
D03*
X597405D02*
D03*
X459288D02*
D03*
X433888D02*
D03*
X408488D02*
D03*
X383088D02*
D03*
X149725D02*
D03*
X124325D02*
D03*
X98925D02*
D03*
X73525D02*
D03*
X3078665Y52700D02*
D03*
X3053265D02*
D03*
X3027865D02*
D03*
X3002465D02*
D03*
X2840535D02*
D03*
X2815135D02*
D03*
X2789735D02*
D03*
X2764335D02*
D03*
X2602415D02*
D03*
X2577015D02*
D03*
X2551615D02*
D03*
X2526215D02*
D03*
X2364285D02*
D03*
X2338885D02*
D03*
X2313485D02*
D03*
X2288085D02*
D03*
X1649915D02*
D03*
X1624515D02*
D03*
X1599115D02*
D03*
X1573715D02*
D03*
X935535D02*
D03*
X910135D02*
D03*
X884735D02*
D03*
X859335D02*
D03*
X697415D02*
D03*
X672015D02*
D03*
X646615D02*
D03*
X621215D02*
D03*
X459288D02*
D03*
X433888D02*
D03*
X408488D02*
D03*
X383088D02*
D03*
X149725D02*
D03*
X124325D02*
D03*
X98925D02*
D03*
X73525D02*
D03*
D19*
X4423275Y916300D02*
D03*
X4359775Y890900D02*
D03*
X4232775Y916300D02*
D03*
X4169275Y890900D02*
D03*
X4042275Y916300D02*
D03*
X3978775Y890900D02*
D03*
X3566025Y1297300D02*
D03*
X3502525Y1271900D02*
D03*
X3375525Y1297300D02*
D03*
X3312025Y1271900D02*
D03*
X4423275Y725800D02*
D03*
X4359775Y700400D02*
D03*
X4232775Y725800D02*
D03*
X4169275Y700400D02*
D03*
X4042275Y725800D02*
D03*
X3978775Y700400D02*
D03*
X3566025Y1106800D02*
D03*
X3502525Y1081400D02*
D03*
X3375525Y1106800D02*
D03*
X3312025Y1081400D02*
D03*
X4423275Y535300D02*
D03*
X4359775Y509900D02*
D03*
X4232775Y535300D02*
D03*
X4169275Y509900D02*
D03*
X4042275Y535300D02*
D03*
X3978775Y509900D02*
D03*
X3756525Y1297300D02*
D03*
X3693025Y1271900D02*
D03*
X3375525Y916300D02*
D03*
X3312025Y890900D02*
D03*
X4423275Y344800D02*
D03*
X4359775Y319400D02*
D03*
X4232775Y344800D02*
D03*
X4169275Y319400D02*
D03*
X4042275Y344800D02*
D03*
X3978775Y319400D02*
D03*
X3756525Y154300D02*
D03*
X3693025Y128900D02*
D03*
X3756525Y1106800D02*
D03*
X3693025Y1081400D02*
D03*
X3375525Y725800D02*
D03*
X3312025Y700400D02*
D03*
X4613775Y916300D02*
D03*
X4550275Y890900D02*
D03*
X4137525Y154300D02*
D03*
X4074025Y128900D02*
D03*
X3566025Y344800D02*
D03*
X3502525Y319400D02*
D03*
X3756525Y916300D02*
D03*
X3693025Y890900D02*
D03*
X3566025Y916300D02*
D03*
X3502525Y890900D02*
D03*
X4613775Y630550D02*
D03*
X4550275Y605150D02*
D03*
X4423275Y154300D02*
D03*
X4359775Y128900D02*
D03*
X3566025Y154300D02*
D03*
X3502525Y128900D02*
D03*
X3756525Y725800D02*
D03*
X3693025Y700400D02*
D03*
X3566025Y725800D02*
D03*
X3502525Y700400D02*
D03*
X4613775Y249550D02*
D03*
X4550275Y224150D02*
D03*
X3375525Y154300D02*
D03*
X3312025Y128900D02*
D03*
X3089775Y1297300D02*
D03*
X3026275Y1271900D02*
D03*
X2899275Y1297300D02*
D03*
X2835775Y1271900D02*
D03*
X2708775Y1297300D02*
D03*
X2645275Y1271900D02*
D03*
X2518275Y1297300D02*
D03*
X2454775Y1271900D02*
D03*
X2327775Y1297300D02*
D03*
X2264275Y1271900D02*
D03*
X2137275Y1297300D02*
D03*
X2073775Y1271900D02*
D03*
X1946775Y1297300D02*
D03*
X1883275Y1271900D02*
D03*
X1756275Y1297300D02*
D03*
X1692775Y1271900D02*
D03*
X1565775Y1297300D02*
D03*
X1502275Y1271900D02*
D03*
X1375275Y1297300D02*
D03*
X1311775Y1271900D02*
D03*
X1184775Y1297300D02*
D03*
X1121275Y1271900D02*
D03*
X994275Y1297300D02*
D03*
X930775Y1271900D02*
D03*
X803775Y1297300D02*
D03*
X740275Y1271900D02*
D03*
X613275Y1297300D02*
D03*
X549775Y1271900D02*
D03*
X422775Y1297300D02*
D03*
X359275Y1271900D02*
D03*
X137025Y1297300D02*
D03*
X73525Y1271900D02*
D03*
X3089775Y1106800D02*
D03*
X3026275Y1081400D02*
D03*
X2899275Y1106800D02*
D03*
X2835775Y1081400D02*
D03*
X2708775Y1106800D02*
D03*
X2645275Y1081400D02*
D03*
X2518275Y1106800D02*
D03*
X2454775Y1081400D02*
D03*
X2327775Y1106800D02*
D03*
X2264275Y1081400D02*
D03*
X2137275Y1106800D02*
D03*
X2073775Y1081400D02*
D03*
X1946775Y1106800D02*
D03*
X1883275Y1081400D02*
D03*
X1756275Y1106800D02*
D03*
X1692775Y1081400D02*
D03*
X1565775Y1106800D02*
D03*
X1502275Y1081400D02*
D03*
X1375275Y1106800D02*
D03*
X1311775Y1081400D02*
D03*
X1184775Y1106800D02*
D03*
X1121275Y1081400D02*
D03*
X994275Y1106800D02*
D03*
X930775Y1081400D02*
D03*
X803775Y1106800D02*
D03*
X740275Y1081400D02*
D03*
X613275Y1106800D02*
D03*
X549775Y1081400D02*
D03*
X422775Y1106800D02*
D03*
X359275Y1081400D02*
D03*
X137025Y1106800D02*
D03*
X73525Y1081400D02*
D03*
X2994525Y916300D02*
D03*
X2931025Y890900D02*
D03*
X2708775Y916300D02*
D03*
X2645275Y890900D02*
D03*
X2518275Y916300D02*
D03*
X2454775Y890900D02*
D03*
X2327775Y916300D02*
D03*
X2264275Y890900D02*
D03*
X2137275Y916300D02*
D03*
X2073775Y890900D02*
D03*
X1946775Y916300D02*
D03*
X1883275Y890900D02*
D03*
X1756275Y916300D02*
D03*
X1692775Y890900D02*
D03*
X1565775Y916300D02*
D03*
X1502275Y890900D02*
D03*
X1375275Y916300D02*
D03*
X1311775Y890900D02*
D03*
X1184775Y916300D02*
D03*
X1121275Y890900D02*
D03*
X994275Y916300D02*
D03*
X930775Y890900D02*
D03*
X803775Y916300D02*
D03*
X740275Y890900D02*
D03*
X613275Y916300D02*
D03*
X549775Y890900D02*
D03*
X422775Y916300D02*
D03*
X359275Y890900D02*
D03*
X137025Y916300D02*
D03*
X73525Y890900D02*
D03*
X3065965Y630550D02*
D03*
X3002465Y605150D02*
D03*
X2804025Y725800D02*
D03*
X2740525Y700400D02*
D03*
X2613525Y725800D02*
D03*
X2550025Y700400D02*
D03*
X2423025Y725800D02*
D03*
X2359525Y700400D02*
D03*
X2232525Y725800D02*
D03*
X2169025Y700400D02*
D03*
X2042025Y725800D02*
D03*
X1978525Y700400D02*
D03*
X1851525Y725800D02*
D03*
X1788025Y700400D02*
D03*
X1661025Y725800D02*
D03*
X1597525Y700400D02*
D03*
X1470525Y725800D02*
D03*
X1407025Y700400D02*
D03*
X1280025Y725800D02*
D03*
X1216525Y700400D02*
D03*
X1089525Y725800D02*
D03*
X1026025Y700400D02*
D03*
X899025Y725800D02*
D03*
X835525Y700400D02*
D03*
X708525Y725800D02*
D03*
X645025Y700400D02*
D03*
X470400Y725800D02*
D03*
X406900Y700400D02*
D03*
X137025Y725800D02*
D03*
X73525Y700400D02*
D03*
X2851655Y535300D02*
D03*
X2788155Y509900D02*
D03*
X2661155Y535300D02*
D03*
X2597655Y509900D02*
D03*
X2470655Y535300D02*
D03*
X2407155Y509900D02*
D03*
X2280155Y535300D02*
D03*
X2216655Y509900D02*
D03*
X2089655Y535300D02*
D03*
X2026155Y509900D02*
D03*
X1899155Y535300D02*
D03*
X1835655Y509900D02*
D03*
X1708655Y535300D02*
D03*
X1645155Y509900D02*
D03*
X1518155Y535300D02*
D03*
X1454655Y509900D02*
D03*
X1327655Y535300D02*
D03*
X1264155Y509900D02*
D03*
X1137155Y535300D02*
D03*
X1073655Y509900D02*
D03*
X946655Y535300D02*
D03*
X883155Y509900D02*
D03*
X756155Y535300D02*
D03*
X692655Y509900D02*
D03*
X494213Y535300D02*
D03*
X430713Y509900D02*
D03*
X137025Y535300D02*
D03*
X73525Y509900D02*
D03*
X2923085Y344800D02*
D03*
X2859585Y319400D02*
D03*
X2565905Y344800D02*
D03*
X2502405Y319400D02*
D03*
X2375405Y344800D02*
D03*
X2311905Y319400D02*
D03*
X2184905Y344800D02*
D03*
X2121405Y319400D02*
D03*
X1994405Y344800D02*
D03*
X1930905Y319400D02*
D03*
X1803905Y344800D02*
D03*
X1740405Y319400D02*
D03*
X1613405Y344800D02*
D03*
X1549905Y319400D02*
D03*
X1422905Y344800D02*
D03*
X1359405Y319400D02*
D03*
X1232405Y344800D02*
D03*
X1168905Y319400D02*
D03*
X1041905Y344800D02*
D03*
X978405Y319400D02*
D03*
X851405Y344800D02*
D03*
X787905Y319400D02*
D03*
X660905Y344800D02*
D03*
X597405Y319400D02*
D03*
X446588Y344800D02*
D03*
X383088Y319400D02*
D03*
X137025Y344800D02*
D03*
X73525Y319400D02*
D03*
X3065965Y154300D02*
D03*
X3002465Y128900D02*
D03*
X2827835Y154300D02*
D03*
X2764335Y128900D02*
D03*
X2589715Y154300D02*
D03*
X2526215Y128900D02*
D03*
X2351585Y154300D02*
D03*
X2288085Y128900D02*
D03*
X1637215Y154300D02*
D03*
X1573715Y128900D02*
D03*
X922835Y154300D02*
D03*
X859335Y128900D02*
D03*
X684715Y154300D02*
D03*
X621215Y128900D02*
D03*
X446588Y154300D02*
D03*
X383088Y128900D02*
D03*
X137025Y154300D02*
D03*
X73525Y128900D02*
D03*
D51*
X3161500Y1197000D02*
D03*
X4510250Y1278500D02*
D03*
X4439413Y1291505D02*
D03*
X4252000Y1005000D02*
D03*
X4266000Y1213000D02*
D03*
D52*
X3161500Y1271000D02*
D03*
X3194500D02*
D03*
Y1222000D02*
D03*
X3161500D02*
D03*
X1430500Y1271000D02*
D03*
X1463500D02*
D03*
Y1222000D02*
D03*
X1430500D02*
D03*
X208500Y1271000D02*
D03*
X241500D02*
D03*
Y1222000D02*
D03*
X208500D02*
D03*
X211500Y120500D02*
D03*
X244500D02*
D03*
Y71500D02*
D03*
X211500D02*
D03*
X1491500Y123500D02*
D03*
X1524500D02*
D03*
Y74500D02*
D03*
X1491500D02*
D03*
X3136500Y114500D02*
D03*
X3169500D02*
D03*
Y65500D02*
D03*
X3136500D02*
D03*
X4019500Y78500D02*
D03*
X4052500D02*
D03*
Y29500D02*
D03*
X4019500D02*
D03*
X4171500Y78500D02*
D03*
X4204500D02*
D03*
Y29500D02*
D03*
X4171500D02*
D03*
X4305500Y78500D02*
D03*
X4338500D02*
D03*
Y29500D02*
D03*
X4305500D02*
D03*
X4472500Y197500D02*
D03*
X4505500D02*
D03*
Y148500D02*
D03*
X4472500D02*
D03*
D53*
X3211000Y1226900D02*
D03*
Y1218100D02*
D03*
X258000Y1227900D02*
D03*
Y1219100D02*
D03*
X261000Y76400D02*
D03*
Y67600D02*
D03*
X1542000Y80400D02*
D03*
Y71600D02*
D03*
X3186000Y71400D02*
D03*
Y62600D02*
D03*
X4069025Y33400D02*
D03*
Y24600D02*
D03*
X4222000Y34000D02*
D03*
Y25200D02*
D03*
X4356000Y33400D02*
D03*
Y24600D02*
D03*
X4524000Y153000D02*
D03*
Y144200D02*
D03*
X3923000Y597600D02*
D03*
Y606400D02*
D03*
X1672000Y1164200D02*
D03*
Y1173000D02*
D03*
X4667500Y976900D02*
D03*
Y968100D02*
D03*
X4513000Y1247400D02*
D03*
Y1238600D02*
D03*
Y1258300D02*
D03*
Y1267100D02*
D03*
X4642000Y1160600D02*
D03*
Y1169400D02*
D03*
D54*
X1460200Y1207500D02*
D03*
X1469000D02*
D03*
D55*
X4401000Y1007500D02*
D03*
Y998500D02*
D03*
X4257000Y1127500D02*
D03*
Y1136500D02*
D03*
Y1114500D02*
D03*
Y1105500D02*
D03*
X4612500Y1036750D02*
D03*
Y1045750D02*
D03*
X4667500Y996500D02*
D03*
Y987500D02*
D03*
X4658500Y977000D02*
D03*
Y968000D02*
D03*
X4396250Y730300D02*
D03*
Y721300D02*
D03*
X4205750Y730300D02*
D03*
Y721300D02*
D03*
X4015250Y730300D02*
D03*
Y721300D02*
D03*
X3348500Y158800D02*
D03*
Y149800D02*
D03*
X3539000Y1301800D02*
D03*
Y1292800D02*
D03*
X3348500Y1301800D02*
D03*
Y1292800D02*
D03*
X3062750Y1111300D02*
D03*
Y1102300D02*
D03*
X2300750Y920800D02*
D03*
Y911800D02*
D03*
X1729250Y920800D02*
D03*
Y911800D02*
D03*
X2967500Y920800D02*
D03*
Y911800D02*
D03*
X2681750Y920800D02*
D03*
Y911800D02*
D03*
X2491250Y920800D02*
D03*
Y911800D02*
D03*
X586250Y920800D02*
D03*
Y911800D02*
D03*
X2110250Y920800D02*
D03*
Y911800D02*
D03*
X395750Y920800D02*
D03*
Y911800D02*
D03*
X1919750Y920800D02*
D03*
Y911800D02*
D03*
X110000Y920800D02*
D03*
Y911800D02*
D03*
X1538750Y920800D02*
D03*
Y911800D02*
D03*
X1348250Y920800D02*
D03*
Y911800D02*
D03*
X1157750Y920800D02*
D03*
Y911800D02*
D03*
X967250Y920800D02*
D03*
Y911800D02*
D03*
X776750Y920800D02*
D03*
Y911800D02*
D03*
D56*
X3838250Y601500D02*
D03*
X3844750D02*
D03*
X3851250D02*
D03*
X3857750D02*
D03*
X3864250D02*
D03*
X3870750D02*
D03*
X3877250D02*
D03*
X3883750D02*
D03*
X3890250D02*
D03*
X3896750D02*
D03*
X3903250D02*
D03*
X3909750D02*
D03*
X3838250Y542500D02*
D03*
X3844750D02*
D03*
X3851250D02*
D03*
X3857750D02*
D03*
X3864250D02*
D03*
X3870750D02*
D03*
X3877250D02*
D03*
X3883750D02*
D03*
X3890250D02*
D03*
X3896750D02*
D03*
X3903250D02*
D03*
X3909750D02*
D03*
X1588250Y1167500D02*
D03*
X1594750D02*
D03*
X1601250D02*
D03*
X1607750D02*
D03*
X1614250D02*
D03*
X1620750D02*
D03*
X1627250D02*
D03*
X1633750D02*
D03*
X1640250D02*
D03*
X1646750D02*
D03*
X1653250D02*
D03*
X1659750D02*
D03*
X1588250Y1108500D02*
D03*
X1594750D02*
D03*
X1601250D02*
D03*
X1607750D02*
D03*
X1614250D02*
D03*
X1620750D02*
D03*
X1627250D02*
D03*
X1633750D02*
D03*
X1640250D02*
D03*
X1646750D02*
D03*
X1653250D02*
D03*
X1659750D02*
D03*
D57*
X4581500Y1051000D02*
D03*
Y1034000D02*
D03*
X4598500Y1051000D02*
D03*
Y1034000D02*
D03*
X4564500Y1051000D02*
D03*
Y1034000D02*
D03*
X4554500Y997250D02*
D03*
Y1014250D02*
D03*
X4571500Y997250D02*
D03*
Y1014250D02*
D03*
X4588500Y997250D02*
D03*
Y1014250D02*
D03*
X4266000Y1229500D02*
D03*
Y1246500D02*
D03*
D58*
X4625000Y955000D02*
D03*
Y991000D02*
D03*
D59*
X4294000Y1181000D02*
D03*
Y1189000D02*
D03*
X4376000Y1233000D02*
D03*
X4294000Y1229000D02*
D03*
X4376000Y1225000D02*
D03*
X4294000Y1221000D02*
D03*
X4376000Y1217000D02*
D03*
X4294000Y1213000D02*
D03*
X4376000Y1209000D02*
D03*
X4294000Y1205000D02*
D03*
X4376000Y1201000D02*
D03*
X4294000Y1197000D02*
D03*
X4376000Y1193000D02*
D03*
Y1185000D02*
D03*
Y1177000D02*
D03*
X4294000Y1173000D02*
D03*
X4376000Y1137000D02*
D03*
X4294000Y1133000D02*
D03*
X4376000Y1129000D02*
D03*
X4294000Y1125000D02*
D03*
X4376000Y1121000D02*
D03*
X4294000Y1117000D02*
D03*
X4376000Y1113000D02*
D03*
X4294000Y1109000D02*
D03*
X4376000Y1105000D02*
D03*
X4294000Y1101000D02*
D03*
X4376000Y1097000D02*
D03*
X4294000Y1093000D02*
D03*
X4376000Y1089000D02*
D03*
X4294000Y1085000D02*
D03*
X4376000Y1081000D02*
D03*
X4294000Y1077000D02*
D03*
X4376000Y1073000D02*
D03*
X4294000Y1069000D02*
D03*
X4376000Y1065000D02*
D03*
X4294000Y1061000D02*
D03*
X4376000Y1057000D02*
D03*
X4294000Y1053000D02*
D03*
X4376000Y1049000D02*
D03*
X4294000Y1045000D02*
D03*
X4376000Y1041000D02*
D03*
X4294000Y1037000D02*
D03*
X4376000Y1033000D02*
D03*
X4294000Y1029000D02*
D03*
X4376000Y1025000D02*
D03*
X4294000Y1021000D02*
D03*
X4376000Y1017000D02*
D03*
X4294000Y1013000D02*
D03*
X4376000Y1009000D02*
D03*
X4294000Y1005000D02*
D03*
X4376000Y1001000D02*
D03*
X4294000Y997000D02*
D03*
D60*
X4456750Y1272500D02*
D03*
Y1263000D02*
D03*
Y1253500D02*
D03*
X4429250D02*
D03*
Y1263000D02*
D03*
Y1272500D02*
D03*
D61*
X4529500Y1242250D02*
D03*
X4539000D02*
D03*
X4548500D02*
D03*
Y1269750D02*
D03*
X4539000D02*
D03*
X4529500D02*
D03*
D62*
X4644000Y1041250D02*
D03*
X4634500D02*
D03*
X4625000D02*
D03*
Y1014750D02*
D03*
X4634500D02*
D03*
X4644000D02*
D03*
D63*
X4574500Y1136500D02*
D03*
Y1169500D02*
D03*
X4623500D02*
D03*
Y1136500D02*
D03*
D64*
X4506500Y1216750D02*
D03*
Y1137250D02*
D03*
X4551500D02*
D03*
Y1216750D02*
D03*
D65*
X3295642Y162000D02*
D03*
X3328408D02*
D03*
X4533892Y257250D02*
D03*
X4566658D02*
D03*
X4533892Y638250D02*
D03*
X4566658D02*
D03*
X3486142Y162000D02*
D03*
X3518908D02*
D03*
X3486142Y733500D02*
D03*
X3518908D02*
D03*
X4343392Y162000D02*
D03*
X4376158D02*
D03*
X3676642Y733500D02*
D03*
X3709408D02*
D03*
X4533892Y924000D02*
D03*
X4566658D02*
D03*
X3486142Y352500D02*
D03*
X3518908D02*
D03*
X4057642Y162000D02*
D03*
X4090408D02*
D03*
X3676642Y924000D02*
D03*
X3709408D02*
D03*
X3486142D02*
D03*
X3518908D02*
D03*
X3962392Y352500D02*
D03*
X3995158D02*
D03*
X4152892D02*
D03*
X4185658D02*
D03*
X3676642Y1114500D02*
D03*
X3709408D02*
D03*
X4343392Y352500D02*
D03*
X4376158D02*
D03*
X3676642Y162000D02*
D03*
X3709408D02*
D03*
X3295642Y733500D02*
D03*
X3328408D02*
D03*
X3676642Y1305000D02*
D03*
X3709408D02*
D03*
X4152892Y543000D02*
D03*
X4185658D02*
D03*
X3962392D02*
D03*
X3995158D02*
D03*
X4343392D02*
D03*
X4376158D02*
D03*
X3295642Y924000D02*
D03*
X3328408D02*
D03*
X4343392Y733500D02*
D03*
X4376158D02*
D03*
X3962392D02*
D03*
X3995158D02*
D03*
X3295642Y1114500D02*
D03*
X3328408D02*
D03*
X4152892Y733500D02*
D03*
X4185658D02*
D03*
X3486142Y1114500D02*
D03*
X3518908D02*
D03*
X4152892Y924000D02*
D03*
X4185658D02*
D03*
X3486142Y1305000D02*
D03*
X3518908D02*
D03*
X4343392Y924000D02*
D03*
X4376158D02*
D03*
X3962392D02*
D03*
X3995158D02*
D03*
X3295642Y1305000D02*
D03*
X3328408D02*
D03*
X2986082Y162000D02*
D03*
X3018848D02*
D03*
X2747952D02*
D03*
X2780718D02*
D03*
X2509832D02*
D03*
X2542598D02*
D03*
X2271702D02*
D03*
X2304468D02*
D03*
X1557332D02*
D03*
X1590098D02*
D03*
X842952D02*
D03*
X875718D02*
D03*
X604832D02*
D03*
X637598D02*
D03*
X366705D02*
D03*
X399471D02*
D03*
X57142D02*
D03*
X89908D02*
D03*
X2486022Y352500D02*
D03*
X2518788D02*
D03*
X2295522D02*
D03*
X2328288D02*
D03*
X2843202D02*
D03*
X2875968D02*
D03*
X2105022D02*
D03*
X2137788D02*
D03*
X1914522D02*
D03*
X1947288D02*
D03*
X1724022D02*
D03*
X1756788D02*
D03*
X1533522D02*
D03*
X1566288D02*
D03*
X1343022D02*
D03*
X1375788D02*
D03*
X1152522D02*
D03*
X1185288D02*
D03*
X962022D02*
D03*
X994788D02*
D03*
X771522D02*
D03*
X804288D02*
D03*
X581022D02*
D03*
X613788D02*
D03*
X366705D02*
D03*
X399471D02*
D03*
X57142D02*
D03*
X89908D02*
D03*
X1628772Y543000D02*
D03*
X1661538D02*
D03*
X1438272D02*
D03*
X1471038D02*
D03*
X57142D02*
D03*
X89908D02*
D03*
X2771772D02*
D03*
X2804538D02*
D03*
X2581272D02*
D03*
X2614038D02*
D03*
X2390772D02*
D03*
X2423538D02*
D03*
X2200272D02*
D03*
X2233038D02*
D03*
X2009772D02*
D03*
X2042538D02*
D03*
X1819272D02*
D03*
X1852038D02*
D03*
X1247772D02*
D03*
X1280538D02*
D03*
X1057272D02*
D03*
X1090038D02*
D03*
X866772D02*
D03*
X899538D02*
D03*
X676272D02*
D03*
X709038D02*
D03*
X414330D02*
D03*
X447096D02*
D03*
X628642Y733500D02*
D03*
X661408D02*
D03*
X390517D02*
D03*
X423283D02*
D03*
X57142D02*
D03*
X89908D02*
D03*
X2986082Y638250D02*
D03*
X3018848D02*
D03*
X2724142Y733500D02*
D03*
X2756908D02*
D03*
X2533642D02*
D03*
X2566408D02*
D03*
X2343142D02*
D03*
X2375908D02*
D03*
X2152642D02*
D03*
X2185408D02*
D03*
X1962142D02*
D03*
X1994908D02*
D03*
X1771642D02*
D03*
X1804408D02*
D03*
X1581142D02*
D03*
X1613908D02*
D03*
X1390642D02*
D03*
X1423408D02*
D03*
X1200142D02*
D03*
X1232908D02*
D03*
X1009642D02*
D03*
X1042408D02*
D03*
X819142D02*
D03*
X851908D02*
D03*
X2914642Y924000D02*
D03*
X2947408D02*
D03*
X2628892D02*
D03*
X2661658D02*
D03*
X2438392D02*
D03*
X2471158D02*
D03*
X2247892D02*
D03*
X2280658D02*
D03*
X2057392D02*
D03*
X2090158D02*
D03*
X1866892D02*
D03*
X1899658D02*
D03*
X1676392D02*
D03*
X1709158D02*
D03*
X1485892D02*
D03*
X1518658D02*
D03*
X1295392D02*
D03*
X1328158D02*
D03*
X1104892D02*
D03*
X1137658D02*
D03*
X914392D02*
D03*
X947158D02*
D03*
X723892D02*
D03*
X756658D02*
D03*
X533392D02*
D03*
X566158D02*
D03*
X342892D02*
D03*
X375658D02*
D03*
X57142D02*
D03*
X89908D02*
D03*
X1295392Y1114500D02*
D03*
X1328158D02*
D03*
X1104892D02*
D03*
X1137658D02*
D03*
X57142D02*
D03*
X89908D02*
D03*
X3009892D02*
D03*
X3042658D02*
D03*
X2819392D02*
D03*
X2852158D02*
D03*
X2628892D02*
D03*
X2661658D02*
D03*
X2438392D02*
D03*
X2471158D02*
D03*
X2247892D02*
D03*
X2280658D02*
D03*
X2057392D02*
D03*
X2090158D02*
D03*
X1866892D02*
D03*
X1899658D02*
D03*
X1676392D02*
D03*
X1709158D02*
D03*
X1485892D02*
D03*
X1518658D02*
D03*
X914392D02*
D03*
X947158D02*
D03*
X723892D02*
D03*
X756658D02*
D03*
X533392D02*
D03*
X566158D02*
D03*
X342892D02*
D03*
X375658D02*
D03*
X2057392Y1305000D02*
D03*
X2090158D02*
D03*
X1866892D02*
D03*
X1899658D02*
D03*
X3009892D02*
D03*
X3042658D02*
D03*
X2819392D02*
D03*
X2852158D02*
D03*
X2628892D02*
D03*
X2661658D02*
D03*
X2438392D02*
D03*
X2471158D02*
D03*
X2247892D02*
D03*
X2280658D02*
D03*
X1676392Y1305000D02*
D03*
X1709158D02*
D03*
X1485892Y1305000D02*
D03*
X1518658D02*
D03*
X1295392D02*
D03*
X1328158D02*
D03*
X1104892D02*
D03*
X1137658D02*
D03*
X914392D02*
D03*
X947158D02*
D03*
X723892D02*
D03*
X756658D02*
D03*
X533392Y1304800D02*
D03*
X566158D02*
D03*
X342892Y1305000D02*
D03*
X375658D02*
D03*
X57142Y1305000D02*
D03*
X89908D02*
D03*
D66*
X4619500Y1275400D02*
D03*
X4580500D02*
D03*
X4619500Y1262700D02*
D03*
X4580500D02*
D03*
X4619500Y1250000D02*
D03*
X4580500D02*
D03*
X4619500Y1237300D02*
D03*
X4580500D02*
D03*
X4619500Y1224600D02*
D03*
X4580500D02*
D03*
D67*
X3944000Y1248500D02*
D03*
Y1223500D02*
D03*
Y1006500D02*
D03*
Y981500D02*
D03*
D68*
X3885000Y1236000D02*
D03*
Y994000D02*
D03*
D69*
X4370000Y1261500D02*
D03*
Y968500D02*
D03*
M02*
