M48
;Layer_Color=9474304
;FILE_FORMAT=4:4
METRIC,LZ
;TYPE=NON_PLATED
T7F00S00C1.0500
T8F00S00C1.1000
T9F00S00C1.5500
T10F00S00C1.6000
T11F00S00C1.7000
T12F00S00C4.0000
%
T07
X039125Y00994
T08
X04335Y0099
T09
X039125Y01236
T10
X04335Y0124
T11
X00060825Y001035
X00162425
X00370388
X00471988
X00608515
X00710115
X00846635
X00948235
X01561015
X01662615
X02275385
X02376985
X02513515
X02615115
X02751635
X02853235
X02989765
X03091365
X03299325
X03400925
X03489825
X03591425
X03680325
X03781925
X04061325
X04162925
X04347075
X04448675
X04537575Y0019875
X04639175
X04448675Y00294
Y004845
X04347075
X04258175
X04156575
X04067675
Y00294
X04156575
X04258175
X04347075
X03966075
Y004845
X03591425Y00294
X03489825
X02948485
X02846885
X02877055Y004845
X02775455
X02686555
X02584955
X02496055
X02394455
X02400805Y00294
X02489705
X02591305
X02299205
X02210305
X02108705
X02019805
X02013455Y004845
X02115055
X02203955
X02305555
X01924555
X01822955
X01734055
X01632455
X01638805Y00294
X01727705
X01829305
X01918205
X01537205
X01448305
X01346705
X01257805
X01251455Y004845
X01353055
X01441955
X01543555
X01162555
X01060955
X00972055
X00870455
X00876805Y00294
X00965705
X01067305
X01156205
X00775205
X00686305
X00584705
X00471988
X00519613Y004845
X00418013
X00679955
X00781555
X00370388Y00294
X00162425
X00060825
Y004845
X00162425
Y00675
X00060825
Y008655
X00162425
X00346575
X003942Y00675
X004958
X00632325
X00733925
X00727575Y008655
X00638675
X00537075
X00448175
X00829175
X00918075
X01019675
X01108575
X01114925Y00675
X01013325
X00924425
X00822825
X01203825
X01305425
X01394325
X01495925
X01584825
X01591175Y008655
X01489575
X01400675
X01299075
X01210175
X01680075
X01781675
X01870575
X01972175
X01965825Y00675
X01876925
X01775325
X01686425
X02067425
X02156325
X02257925
X02346825
X02353175Y008655
X02251575
X02162675
X02061075
X02442075
X02543675
X02632575
X02734175
X02727825Y00675
X02638925
X02537325
X02448425
X02829425
X02989765Y0057975
X03091365
X03019925Y008655
X02918325
X03299325
X03400925
X03489825
Y00675
X03400925
X03299325
X03591425
X03680325
X03781925
X03966075
Y008655
X03781925
X03680325
X03591425
X04067675
X04156575
X04258175
X04347075
Y00675
X04258175
X04156575
X04067675
X04448675
X04537575Y0057975
X04639175
Y008655
X04537575
X04448675
X03781925Y01056
X03680325
X03591425
Y012465
X03680325
X03781925
X03489825
X03400925
X03299325
Y01056
X03400925
X03489825
X03115175
X03013575
X02924675
X02823075
Y012465
X02924675
X03013575
X03115175
X02734175
X02632575
X02543675
X02442075
Y01056
X02543675
X02632575
X02734175
X02353175
X02251575
X02162675
X02061075
Y012465
X02162675
X02251575
X02353175
X01972175
X01870575
X01781675
X01680075
Y01056
X01781675
X01870575
X01972175
X01591175
X01489575
X01400675
X01299075
X01210175
Y012465
X01299075
X01400675
X01489575
X01591175
X01108575
X01019675
X00918075
X00829175
Y01056
X00918075
X01019675
X01108575
X00727575
X00638675
X00537075
X00448175
Y012465
X00537075
X00638675
X00727575
X00346575
X00162425
X00060825
Y01056
X00162425
X00346575
T12
X00111625Y001035
X00421188
X00659315
X00897435
X01611815
X02326185
X02564315
X02802435
X03040565
X03350125
X03540625
X03731125
X04112125
X04397875
Y00294
Y004845
X04588375Y0019875
X04207375Y00294
Y004845
X04016875
Y00294
X03540625
X02897685
X02826255Y004845
X02635755
X02445255
X02540505Y00294
X02350005
X02159505
X02254755Y004845
X02064255
X01873755
X01683255
X01778505Y00294
X01969005
X01588005
X01397505
X01207005
X01302255Y004845
X01492755
X01111755
X00921255
X01016505Y00294
X00826005
X00635505
X00421188
X00468813Y004845
X00730755
X00111625
Y00294
Y00675
Y008655
X00397375
X00587875
X00778375
X00683125Y00675
X00445
X00873625
X01064125
X01159375Y008655
X00968875
X01349875
X01540375
X01445125Y00675
X01254625
X01635625
X01826125
X01921375Y008655
X01730875
X02111875
X02302375
X02207125Y00675
X02016625
X02397625
X02588125
X02778625
X02683375Y008655
X02492875
X02969125
X03040565Y0057975
X03350125Y00675
Y008655
X03540625
Y00675
X03731125
Y008655
X04016875
X04207375
Y00675
X04016875
X04397875
Y008655
X04588375
Y0057975
X03731125Y01056
Y012465
X03540625
X03350125
Y01056
X03540625
X03064375
Y012465
X02873875
Y01056
X02683375
Y012465
X02492875
Y01056
X02302375
Y012465
X02111875
Y01056
X01921375
Y012465
X01730875
Y01056
X01540375
Y012465
X01349875
Y01056
X01159375
Y012465
X00968875
Y01056
X00778375
Y012465
X00587875
Y01056
X00397375
Y012465
X00111625
Y01056
M30
