G04*
G04 #@! TF.GenerationSoftware,Altium Limited,Altium Designer,20.0.7 (75)*
G04*
G04 Layer_Color=128*
%FSLAX44Y44*%
%MOMM*%
G71*
G01*
G75*
%ADD10R,0.6500X0.5500*%
%ADD33R,0.9000X1.5000*%
%ADD34R,0.6200X0.6600*%
%ADD35R,0.6600X0.6200*%
%ADD36R,0.5500X0.6500*%
%ADD37O,0.4500X1.4000*%
%ADD38R,1.4000X1.2000*%
%ADD39R,4.9000X2.5000*%
%ADD41R,1.0000X0.6000*%
%ADD42R,0.6000X1.0000*%
%ADD43R,0.5500X1.0500*%
%ADD44R,1.5000X0.9000*%
%ADD45R,1.3000X1.5500*%
G04:AMPARAMS|DCode=47|XSize=0.76mm|YSize=2.4mm|CornerRadius=0.19mm|HoleSize=0mm|Usage=FLASHONLY|Rotation=90.000|XOffset=0mm|YOffset=0mm|HoleType=Round|Shape=RoundedRectangle|*
%AMROUNDEDRECTD47*
21,1,0.7600,2.0200,0,0,90.0*
21,1,0.3800,2.4000,0,0,90.0*
1,1,0.3800,1.0100,0.1900*
1,1,0.3800,1.0100,-0.1900*
1,1,0.3800,-1.0100,-0.1900*
1,1,0.3800,-1.0100,0.1900*
%
%ADD47ROUNDEDRECTD47*%
D10*
X4404500Y1226000D02*
D03*
X4413500D02*
D03*
X30500Y733500D02*
D03*
X39500D02*
D03*
X30500Y352500D02*
D03*
X39500D02*
D03*
X30500Y924000D02*
D03*
X39500D02*
D03*
X30500Y1114500D02*
D03*
X39500D02*
D03*
X30500Y543000D02*
D03*
X39500D02*
D03*
X30500Y1305000D02*
D03*
X39500D02*
D03*
X30500Y162000D02*
D03*
X39500D02*
D03*
X4385500Y1288000D02*
D03*
X4394500D02*
D03*
D33*
X3161500Y1271000D02*
D03*
X3194500D02*
D03*
Y1222000D02*
D03*
X3161500D02*
D03*
X1430500Y1271000D02*
D03*
X1463500D02*
D03*
Y1222000D02*
D03*
X1430500D02*
D03*
X208500Y1271000D02*
D03*
X241500D02*
D03*
Y1222000D02*
D03*
X208500D02*
D03*
X211500Y120500D02*
D03*
X244500D02*
D03*
Y71500D02*
D03*
X211500D02*
D03*
X1491500Y123500D02*
D03*
X1524500D02*
D03*
Y74500D02*
D03*
X1491500D02*
D03*
X3136500Y114500D02*
D03*
X3169500D02*
D03*
Y65500D02*
D03*
X3136500D02*
D03*
X4019500Y78500D02*
D03*
X4052500D02*
D03*
Y29500D02*
D03*
X4019500D02*
D03*
X4171500Y78500D02*
D03*
X4204500D02*
D03*
Y29500D02*
D03*
X4171500D02*
D03*
X4305500Y78500D02*
D03*
X4338500D02*
D03*
Y29500D02*
D03*
X4305500D02*
D03*
X4472500Y197500D02*
D03*
X4505500D02*
D03*
Y148500D02*
D03*
X4472500D02*
D03*
D34*
X3211000Y1226900D02*
D03*
Y1218100D02*
D03*
X258000Y1227900D02*
D03*
Y1219100D02*
D03*
X261000Y76400D02*
D03*
Y67600D02*
D03*
X1542000Y80400D02*
D03*
Y71600D02*
D03*
X3186000Y71400D02*
D03*
Y62600D02*
D03*
X4069025Y33400D02*
D03*
Y24600D02*
D03*
X4222000Y34000D02*
D03*
Y25200D02*
D03*
X4356000Y33400D02*
D03*
Y24600D02*
D03*
X4524000Y153000D02*
D03*
Y144200D02*
D03*
X3923000Y597600D02*
D03*
Y606400D02*
D03*
X1672000Y1164200D02*
D03*
Y1173000D02*
D03*
X4667500Y976900D02*
D03*
Y968100D02*
D03*
X4513000Y1247400D02*
D03*
Y1238600D02*
D03*
Y1258300D02*
D03*
Y1267100D02*
D03*
X4642000Y1160600D02*
D03*
Y1169400D02*
D03*
D35*
X1460200Y1207500D02*
D03*
X1469000D02*
D03*
D36*
X4401000Y1007500D02*
D03*
Y998500D02*
D03*
X4257000Y1127500D02*
D03*
Y1136500D02*
D03*
Y1114500D02*
D03*
Y1105500D02*
D03*
X4612500Y1036750D02*
D03*
Y1045750D02*
D03*
X4667500Y996500D02*
D03*
Y987500D02*
D03*
X4658500Y977000D02*
D03*
Y968000D02*
D03*
X4396250Y730300D02*
D03*
Y721300D02*
D03*
X4205750Y730300D02*
D03*
Y721300D02*
D03*
X4015250Y730300D02*
D03*
Y721300D02*
D03*
X3348500Y158800D02*
D03*
Y149800D02*
D03*
X3539000Y1301800D02*
D03*
Y1292800D02*
D03*
X3348500Y1301800D02*
D03*
Y1292800D02*
D03*
X3062750Y1111300D02*
D03*
Y1102300D02*
D03*
X2300750Y920800D02*
D03*
Y911800D02*
D03*
X1729250Y920800D02*
D03*
Y911800D02*
D03*
X2967500Y920800D02*
D03*
Y911800D02*
D03*
X2681750Y920800D02*
D03*
Y911800D02*
D03*
X2491250Y920800D02*
D03*
Y911800D02*
D03*
X586250Y920800D02*
D03*
Y911800D02*
D03*
X2110250Y920800D02*
D03*
Y911800D02*
D03*
X395750Y920800D02*
D03*
Y911800D02*
D03*
X1919750Y920800D02*
D03*
Y911800D02*
D03*
X110000Y920800D02*
D03*
Y911800D02*
D03*
X1538750Y920800D02*
D03*
Y911800D02*
D03*
X1348250Y920800D02*
D03*
Y911800D02*
D03*
X1157750Y920800D02*
D03*
Y911800D02*
D03*
X967250Y920800D02*
D03*
Y911800D02*
D03*
X776750Y920800D02*
D03*
Y911800D02*
D03*
D37*
X3838250Y601500D02*
D03*
X3844750D02*
D03*
X3851250D02*
D03*
X3857750D02*
D03*
X3864250D02*
D03*
X3870750D02*
D03*
X3877250D02*
D03*
X3883750D02*
D03*
X3890250D02*
D03*
X3896750D02*
D03*
X3903250D02*
D03*
X3909750D02*
D03*
X3838250Y542500D02*
D03*
X3844750D02*
D03*
X3851250D02*
D03*
X3857750D02*
D03*
X3864250D02*
D03*
X3870750D02*
D03*
X3877250D02*
D03*
X3883750D02*
D03*
X3890250D02*
D03*
X3896750D02*
D03*
X3903250D02*
D03*
X3909750D02*
D03*
X1588250Y1167500D02*
D03*
X1594750D02*
D03*
X1601250D02*
D03*
X1607750D02*
D03*
X1614250D02*
D03*
X1620750D02*
D03*
X1627250D02*
D03*
X1633750D02*
D03*
X1640250D02*
D03*
X1646750D02*
D03*
X1653250D02*
D03*
X1659750D02*
D03*
X1588250Y1108500D02*
D03*
X1594750D02*
D03*
X1601250D02*
D03*
X1607750D02*
D03*
X1614250D02*
D03*
X1620750D02*
D03*
X1627250D02*
D03*
X1633750D02*
D03*
X1640250D02*
D03*
X1646750D02*
D03*
X1653250D02*
D03*
X1659750D02*
D03*
D38*
X4581500Y1051000D02*
D03*
Y1034000D02*
D03*
X4598500Y1051000D02*
D03*
Y1034000D02*
D03*
X4564500Y1051000D02*
D03*
Y1034000D02*
D03*
X4554500Y997250D02*
D03*
Y1014250D02*
D03*
X4571500Y997250D02*
D03*
Y1014250D02*
D03*
X4588500Y997250D02*
D03*
Y1014250D02*
D03*
X4266000Y1229500D02*
D03*
Y1246500D02*
D03*
D39*
X4625000Y955000D02*
D03*
Y991000D02*
D03*
D41*
X4456750Y1272500D02*
D03*
Y1263000D02*
D03*
Y1253500D02*
D03*
X4429250D02*
D03*
Y1263000D02*
D03*
Y1272500D02*
D03*
D42*
X4529500Y1242250D02*
D03*
X4539000D02*
D03*
X4548500D02*
D03*
Y1269750D02*
D03*
X4539000D02*
D03*
X4529500D02*
D03*
D43*
X4644000Y1041250D02*
D03*
X4634500D02*
D03*
X4625000D02*
D03*
Y1014750D02*
D03*
X4634500D02*
D03*
X4644000D02*
D03*
D44*
X4574500Y1136500D02*
D03*
Y1169500D02*
D03*
X4623500D02*
D03*
Y1136500D02*
D03*
D45*
X4506500Y1216750D02*
D03*
Y1137250D02*
D03*
X4551500D02*
D03*
Y1216750D02*
D03*
D47*
X4619500Y1275400D02*
D03*
X4580500D02*
D03*
X4619500Y1262700D02*
D03*
X4580500D02*
D03*
X4619500Y1250000D02*
D03*
X4580500D02*
D03*
X4619500Y1237300D02*
D03*
X4580500D02*
D03*
X4619500Y1224600D02*
D03*
X4580500D02*
D03*
M02*
