M48
;Layer_Color=9474304
;FILE_FORMAT=4:4
METRIC,LZ
;TYPE=PLATED
T1F00S00C0.3000
T2F00S00C0.4000
T4F00S00C1.0000
T5F00S00C1.1000
T6F00S00C1.5000
%
T01
X002115Y0013279
X00261145Y00083974
X01534426Y00080545
X014915Y0013579
X031365Y0012679
X03186145Y00078974
X03348354Y00142226
X040195Y0009079
X04076599Y00033255
X041715Y0009079
X04222145Y00041574
X043055Y0009079
X04363574Y00033255
X04472404Y00210177
X04524146Y00160574
X03656977Y00162064
X03625536Y00162214
X03903025Y00529963
X03566314Y00373726
X03371233Y00365272
X03371336Y00340535
X00030355Y00344926
Y00535426
Y00154426
Y00725926
Y00916426
X00109855Y00904226
X00395605
X00586105
X00776605
X00967105
X01157605
X01348105
X01538605
X01729105
X01919605
X02110105
X02300605
X02491105
X02681605
X02967355
X03830676Y00542645
X0390969Y00584094
X03910897Y0061617
X03930574Y00597455
X04015105Y00713726
X04205605
X04396105
X04409055Y00982538
X04408954Y00998493
X04390451Y01001
X04394476Y01052271
X04410069Y01055148
X04411141Y01072163
X04399538Y01069575
X04399046Y01105673
X04390451Y01105
Y01137
X04406555Y01159632
X04393088Y01173339
X04390451Y01233
X04422617Y01226097
X04444959Y01267251
X04504862Y01258327
X04521971Y01242251
X04518749Y0121675
X04539Y01257501
X04548345Y01257468
X04542296Y01283846
X04521991Y01276807
X04599238Y01275356
X04600324Y01263205
X04595275Y01297114
X04619635Y01295718
X04619472Y01214373
X04617733Y0114891
X04641696Y01152885
X04589313Y0114891
X04586749Y011365
X04608201Y01128926
X04566277Y01094011
X04545855Y01053329
X04545885Y01043253
X04551483Y01032479
Y01024085
X04559878
X04568273
X04576668
X04585063
X04593457
X04601852
Y0101569
X04610247
Y01024085
X04667645Y01004074
X04532498Y01009242
X04532912Y01016096
X04532653Y01023794
X04526793Y01020433
X04526851Y01012821
X04526621Y01005841
X04503946Y01007094
X04504322Y01013669
X04497676Y01010943
X04497928Y01003427
Y0099617
X04503478Y00999798
X04518749Y0113725
X04440087Y0113551
X04484683Y01326315
X04357909Y01204348
X04361548Y01177
X04371168Y01147932
X04337502Y01145205
X04334741Y01131632
X04326104Y01108557
X04318089Y01101
X04319697Y01069046
X04313748Y01061113
X04317223Y01033677
X04317986Y01022819
X04324889Y0102851
X0432024Y00979071
X04312639Y00978082
X04328711Y00977355
X04279549Y00997
Y01053
Y01093
Y01133
X04272008Y01158189
X04257153Y01158885
X04244512Y01157644
Y01138025
X04235918Y01130445
Y01106963
X04238617Y01084537
X04211426Y01057346
X0422206Y01032039
X04207792Y0101777
X0414618Y01164057
X04119387Y0119085
X04097901Y01174231
X04090274Y01163495
X04084161Y01169494
X04056039Y0116208
X04061801Y01188298
X04031238Y01188861
X04031043Y01203904
X04084246Y01124867
X0409021Y0111869
X04098101Y01121051
X04272128Y01174421
X04308452Y01173
Y01197
X04330509Y01167977
X04361548Y01073
X04278391Y01246358
X04272238Y01259653
X04248165Y01259698
X03962451Y012485
Y012235
X03866549Y01236
Y00994
X03962451Y009815
X03962557Y01006606
X03628119Y01156077
X03627816Y0119018
X03566041Y01211531
X03538855Y01285226
X03534822Y01319161
X03486085Y01319281
X03348354Y01285226
X03375637Y01228734
X03211145Y01234474
X031615Y0128329
X03089743Y01225025
X03070324Y01102155
X02899267Y01224701
X02708775Y01224892
X02518241Y01223847
X02327823Y01223969
X02137343Y01223543
X0194661Y01223644
X01756203Y01224121
X01679574Y01164055
X01665961Y0112364
X01665984Y01108498
X01653336Y01095708
X01640376Y01180173
X01565876Y0122419
X01460055Y01199926
X01375249Y01224285
X014305Y0128329
X01588379Y0109787
X01184988Y01225601
X00994124Y01224882
X00803788Y01223704
X00613294Y01224407
X0042277Y01224985
X00265574Y01227755
X002085Y0128329
X00030355Y01297426
Y01106926
T02
X0452975Y01295
X0452125
X0451275
X0450425
X0449575
X0448725
X0447875
X0447025
Y013085
X0447875
X0448725
X0449575
X0450425
X0451275
X0452125
X0452975
T04
X00073525Y000527
X00098925
X00124325
X00149725
X00383088
X00408488
X00433888
X00459288
X00621215
X00646615
X00672015
X00697415
X00859335
X00884735
X00910135
X00935535
X01573715
X01599115
X01624515
X01649915
X02288085
X02313485
X02338885
X02364285
X02526215
X02551615
X02577015
X02602415
X02764335
X02789735
X02815135
X02840535
X03002465
X03027865
X03053265
X03078665
X03312025
X03337425
X03362825
X03388225
X03502525
X03527925
X03553325
X03578725
X03693025
X03718425
X03743825
X03769225
X04074025
X04099425
X04124825
X04150225
X04359775
X04385175
X04410575
X04435975
Y002432
X04410575
X04385175
Y004337
X04410575
X04435975
X04550275Y0052895
X04575675
X04601075
X04626475
Y0014795
X04601075
X04575675
X04550275
X04359775Y002432
X04245475
X04220075
X04194675
X04169275
X04054975
X04029575
X04004175
X03978775
Y004337
X04004175
X04029575
X04054975
X04169275
X04194675
X04220075
X04245475
X04359775
X03578725Y002432
X03553325
X03527925
X03502525
X02935785
X02910385
X02884985
X02859585
X02864355Y004337
X02838955
X02813555
X02788155
X03002465Y0052895
X03027865
X03053265
X03078665
X02673855Y004337
X02648455
X02623055
X02597655
X02483355
X02457955
X02432555
X02407155
X02502405Y002432
X02527805
X02553205
X02578605
X02388105
X02362705
X02337305
X02311905
X02197605
X02172205
X02146805
X02121405
X02007105
X02026155Y004337
X02051555
X02076955
X02102355
X02216655
X02242055
X02267455
X02292855
X01911855
X01886455
X01861055
X01835655
X01721355
X01695955
X01670555
X01645155
X01626105Y002432
X01600705
X01740405
X01765805
X01791205
X01816605
X01930905
X01956305
X01981705
X01575305
X01549905
X01435605
X01410205
X01384805
X01359405
X01245105
X01219705
X01264155Y004337
X01289555
X01314955
X01340355
X01454655
X01480055
X01505455
X01530855
X01149855
X01124455
X01099055
X01073655
X00959355
X00933955
X00908555
X00883155
X00864105Y002432
X00838705
X00813305
X00978405
X01003805
X01029205
X01054605
X01168905
X01194305
X00787905
X00673605
X00648205
X00622805
X00597405
X00459288
X00433888
X00408488
X00430713Y004337
X00456113
X00481513
X00506913
X00692655
X00718055
X00743455
X00768855
X00383088Y002432
X00149725
X00124325
X00098925
X00073525
Y004337
X00098925
X00124325
X00149725
Y006242
X00124325
X00098925
X00073525
Y008147
X00098925
X00124325
X00149725
X00359275
X00384675
X00410075
X00435475
X00549775
X00575175
X00600575
X00625975
X00740275
X00765675
X00791075
X00721225Y006242
X00695825
X00670425
X00645025
X004831
X004577
X004323
X004069
X00835525
X00860925
X00886325
X00911725
X01026025
X01051425
X01076825
X01102225
X01121275Y008147
X01146675
X01172075
X01197475
X01006975
X00981575
X00956175
X00930775
X00816475
X01311775
X01337175
X01362575
X01387975
X01502275
X01527675
X01553075
X01578475
X01483225Y006242
X01457825
X01432425
X01407025
X01292725
X01267325
X01241925
X01216525
X01597525
X01622925
X01648325
X01673725
X01788025
X01813425
X01838825
X01864225
X01978525
X01959475Y008147
X01934075
X01908675
X01883275
X01768975
X01743575
X01718175
X01692775
X02073775
X02099175
X02124575
X02149975
X02264275
X02289675
X02315075
X02340475
X02359525Y006242
X02384925
X02245225
X02219825
X02194425
X02169025
X02054725
X02029325
X02003925
X02410325
X02435725
X02550025
X02575425
X02600825
X02626225
X02740525
X02765925
X02721475Y008147
X02696075
X02670675
X02645275
X02530975
X02505575
X02480175
X02454775
X02931025
X02956425
X02981825
X03007225
X02816725Y006242
X02791325
X03312025
X03337425
X03362825
X03388225
X03502525
X03527925
X03553325
X03578725
Y008147
X03553325
X03527925
X03502525
X03388225
X03362825
X03337425
X03312025
X03693025
X03718425
X03743825
X03769225
Y006242
X03743825
X03718425
X03693025
X03978775
X04004175
X04029575
X04054975
X04169275
X04194675
X04220075
X04245475
X04359775
Y008147
X04245475
X04220075
X04194675
X04169275
X04054975
X04029575
X04004175
X03978775
X04385175
X04410575
X04435975
X04550275
X04575675
X04601075
X04626475
X04435975Y006242
X04410575
X04385175
X03769225Y010052
X03743825
X03718425
X03693025
Y011957
X03718425
X03743825
X03769225
X03578725
X03553325
X03527925
X03502525
X03388225
X03362825
X03337425
X03312025
Y010052
X03337425
X03362825
X03388225
X03502525
X03527925
X03553325
X03578725
X03102475
X03077075
X03051675
X03026275
X02911975
X02886575
X02861175
X02835775
Y011957
X02861175
X02886575
X02911975
X03026275
X03051675
X03077075
X03102475
X02721475
X02696075
X02670675
X02645275
X02530975
X02505575
X02480175
X02454775
Y010052
X02480175
X02505575
X02530975
X02645275
X02670675
X02696075
X02721475
X02340475
X02315075
X02289675
X02264275
X02149975
X02124575
X02099175
X02073775
Y011957
X02099175
X02124575
X02149975
X02264275
X02289675
X02315075
X02340475
X01959475
X01934075
X01908675
X01883275
X01768975
X01743575
X01718175
X01692775
Y010052
X01718175
X01743575
X01768975
X01883275
X01908675
X01934075
X01959475
X01578475
X01553075
X01527675
X01502275
X01387975
X01362575
X01337175
X01311775
Y011957
X01337175
X01362575
X01387975
X01502275
X01527675
X01553075
X01578475
X01197475
X01172075
X01146675
X01121275
X01006975
X00981575
X00956175
X00930775
X00816475
Y010052
X00930775
X00956175
X00981575
X01006975
X01121275
X01146675
X01172075
X01197475
X00791075
X00765675
X00740275
X00625975
X00600575
X00575175
X00549775
X00435475
X00410075
Y011957
X00435475
X00549775
X00575175
X00600575
X00625975
X00740275
X00765675
X00791075
X00384675
X00359275
Y010052
X00384675
X00149725
X00124325
X00098925
X00073525
Y011957
X00098925
X00124325
X00149725
T05
X0466Y010814
Y011068
X046346
Y010814
X046092
Y011068
X045838
Y010814
X045584
Y011068
X04533
Y010814
X045076
Y011068
X044822
Y010814
X044568
Y011068
X044314
Y010814
X044114Y01312
X04386
X043606
T06
X00073525Y001289
X00383088
X00621215
X00859335
X01573715
X02288085
X02526215
X02764335
X03002465
X03312025
X03502525
X03693025
X04074025
X04359775
X04423275Y001543
Y003448
Y005353
X04550275Y0022415
X04613775Y0024955
X04359775Y003194
X04232775Y003448
X04169275Y003194
X04042275Y003448
X03978775Y003194
Y005099
X04042275Y005353
X04169275Y005099
X04232775Y005353
X04359775Y005099
X04137525Y001543
X03756525
X03566025
Y003448
X03502525Y003194
X03375525Y001543
X03065965
X02827835
X02859585Y003194
X02923085Y003448
X02851655Y005353
X02788155Y005099
X02661155Y005353
X02597655Y005099
X02470655Y005353
X02407155Y005099
X02502405Y003194
X02565905Y003448
X02589715Y001543
X02351585
X02311905Y003194
X02375405Y003448
X02184905
X02121405Y003194
X01994405Y003448
X02026155Y005099
X02089655Y005353
X02216655Y005099
X02280155Y005353
X01899155
X01835655Y005099
X01708655Y005353
X01645155Y005099
X01613405Y003448
X01740405Y003194
X01803905Y003448
X01930905Y003194
X01637215Y001543
X01549905Y003194
X01422905Y003448
X01359405Y003194
X01232405Y003448
X01264155Y005099
X01327655Y005353
X01454655Y005099
X01518155Y005353
X01137155
X01073655Y005099
X00946655Y005353
X00883155Y005099
X00851405Y003448
X00978405Y003194
X01041905Y003448
X01168905Y003194
X00922835Y001543
X00684715
X00660905Y003448
X00597405Y003194
X00446588Y003448
X00430713Y005099
X00494213Y005353
X00692655Y005099
X00756155Y005353
X00787905Y003194
X00446588Y001543
X00383088Y003194
X00137025Y003448
X00073525Y003194
Y005099
X00137025Y005353
Y001543
Y007258
X00073525Y007004
Y008909
X00137025Y009163
X00359275Y008909
X00422775Y009163
X00549775Y008909
X00613275Y009163
X00740275Y008909
X00708525Y007258
X00645025Y007004
X004704Y007258
X004069Y007004
X00835525
X00899025Y007258
X01026025Y007004
X01089525Y007258
X01121275Y008909
X01184775Y009163
X00994275
X00930775Y008909
X00803775Y009163
X01311775Y008909
X01375275Y009163
X01502275Y008909
X01565775Y009163
X01470525Y007258
X01407025Y007004
X01280025Y007258
X01216525Y007004
X01597525
X01661025Y007258
X01788025Y007004
X01851525Y007258
X01978525Y007004
X01946775Y009163
X01883275Y008909
X01756275Y009163
X01692775Y008909
X02073775
X02137275Y009163
X02264275Y008909
X02327775Y009163
X02359525Y007004
X02232525Y007258
X02169025Y007004
X02042025Y007258
X02423025
X02550025Y007004
X02613525Y007258
X02740525Y007004
X02708775Y009163
X02645275Y008909
X02518275Y009163
X02454775Y008909
X02931025
X02994525Y009163
X03002465Y0060515
X03065965Y0063055
X02804025Y007258
X03312025Y007004
X03375525Y007258
X03502525Y007004
X03566025Y007258
Y009163
X03502525Y008909
X03375525Y009163
X03312025Y008909
X03693025
X03756525Y009163
Y007258
X03693025Y007004
X03978775
X04042275Y007258
X04169275Y007004
X04232775Y007258
X04359775Y007004
Y008909
X04232775Y009163
X04169275Y008909
X04042275Y009163
X03978775Y008909
X04423275Y009163
X04550275Y008909
X04613775Y009163
Y0063055
X04550275Y0060515
X04423275Y007258
X03756525Y011068
X03693025Y010814
Y012719
X03756525Y012973
X03566025
X03502525Y012719
X03375525Y012973
X03312025Y012719
Y010814
X03375525Y011068
X03502525Y010814
X03566025Y011068
X03089775
X03026275Y010814
X02899275Y011068
X02835775Y010814
Y012719
X02899275Y012973
X03026275Y012719
X03089775Y012973
X02708775
X02645275Y012719
X02518275Y012973
X02454775Y012719
Y010814
X02518275Y011068
X02645275Y010814
X02708775Y011068
X02327775
X02264275Y010814
X02137275Y011068
X02073775Y010814
Y012719
X02137275Y012973
X02264275Y012719
X02327775Y012973
X01946775
X01883275Y012719
X01756275Y012973
X01692775Y012719
Y010814
X01756275Y011068
X01883275Y010814
X01946775Y011068
X01565775
X01502275Y010814
X01375275Y011068
X01311775Y010814
Y012719
X01375275Y012973
X01502275Y012719
X01565775Y012973
X01184775
X01121275Y012719
X00994275Y012973
X00930775Y012719
X00803775Y012973
Y011068
X00930775Y010814
X00994275Y011068
X01121275Y010814
X01184775Y011068
X00740275Y010814
X00613275Y011068
X00549775Y010814
X00422775Y011068
Y012973
X00549775Y012719
X00613275Y012973
X00740275Y012719
X00359275
Y010814
X00137025Y011068
X00073525Y010814
Y012719
X00137025Y012973
M30
